<svg xmlns="http://www.w3.org/2000/svg" viewBox="0 0 32 32"><path d="M 31.68 16.00 L 31.68 19.65 L 31.66 20.93 L 31.64 21.87 L 31.61 22.65 L 31.58 23.32 L 31.53 23.92 L 31.48 24.46 L 31.41 24.95 L 31.34 25.41 L 31.26 25.83 L 31.17 26.23 L 31.08 26.60 L 30.97 26.96 L 30.85 27.29 L 30.73 27.60 L 30.60 27.90 L 30.45 28.18 L 30.30 28.45 L 30.14 28.70 L 29.96 28.94 L 29.78 29.17 L 29.59 29.38 L 29.38 29.59 L 29.17 29.78 L 28.94 29.96 L 28.70 30.14 L 28.45 30.30 L 28.18 30.45 L 27.90 30.60 L 27.60 30.73 L 27.29 30.85 L 26.96 30.97 L 26.60 31.08 L 26.23 31.17 L 25.83 31.26 L 25.41 31.34 L 24.95 31.41 L 24.46 31.48 L 23.92 31.53 L 23.32 31.58 L 22.65 31.61 L 21.87 31.64 L 20.93 31.66 L 19.65 31.68 L 16.00 31.68 L 12.35 31.68 L 11.07 31.66 L 10.13 31.64 L 9.35 31.61 L 8.68 31.58 L 8.08 31.53 L 7.54 31.48 L 7.05 31.41 L 6.59 31.34 L 6.17 31.26 L 5.77 31.17 L 5.40 31.08 L 5.04 30.97 L 4.71 30.85 L 4.40 30.73 L 4.10 30.60 L 3.82 30.45 L 3.55 30.30 L 3.30 30.14 L 3.06 29.96 L 2.83 29.78 L 2.62 29.59 L 2.41 29.38 L 2.22 29.17 L 2.04 28.94 L 1.86 28.70 L 1.70 28.45 L 1.55 28.18 L 1.40 27.90 L 1.27 27.60 L 1.15 27.29 L 1.03 26.96 L 0.92 26.60 L 0.83 26.23 L 0.74 25.83 L 0.66 25.41 L 0.59 24.95 L 0.52 24.46 L 0.47 23.92 L 0.42 23.32 L 0.39 22.65 L 0.36 21.87 L 0.34 20.93 L 0.32 19.65 L 0.32 16.00 L 0.32 12.35 L 0.34 11.07 L 0.36 10.13 L 0.39 9.35 L 0.42 8.68 L 0.47 8.08 L 0.52 7.54 L 0.59 7.05 L 0.66 6.59 L 0.74 6.17 L 0.83 5.77 L 0.92 5.40 L 1.03 5.04 L 1.15 4.71 L 1.27 4.40 L 1.40 4.10 L 1.55 3.82 L 1.70 3.55 L 1.86 3.30 L 2.04 3.06 L 2.22 2.83 L 2.41 2.62 L 2.62 2.41 L 2.83 2.22 L 3.06 2.04 L 3.30 1.86 L 3.55 1.70 L 3.82 1.55 L 4.10 1.40 L 4.40 1.27 L 4.71 1.15 L 5.04 1.03 L 5.40 0.92 L 5.77 0.83 L 6.17 0.74 L 6.59 0.66 L 7.05 0.59 L 7.54 0.52 L 8.08 0.47 L 8.68 0.42 L 9.35 0.39 L 10.13 0.36 L 11.07 0.34 L 12.35 0.32 L 16.00 0.32 L 19.65 0.32 L 20.93 0.34 L 21.87 0.36 L 22.65 0.39 L 23.32 0.42 L 23.92 0.47 L 24.46 0.52 L 24.95 0.59 L 25.41 0.66 L 25.83 0.74 L 26.23 0.83 L 26.60 0.92 L 26.96 1.03 L 27.29 1.15 L 27.60 1.27 L 27.90 1.40 L 28.18 1.55 L 28.45 1.70 L 28.70 1.86 L 28.94 2.04 L 29.17 2.22 L 29.38 2.41 L 29.59 2.62 L 29.78 2.83 L 29.96 3.06 L 30.14 3.30 L 30.30 3.55 L 30.45 3.82 L 30.60 4.10 L 30.73 4.40 L 30.85 4.71 L 30.97 5.04 L 31.08 5.40 L 31.17 5.77 L 31.26 6.17 L 31.34 6.59 L 31.41 7.05 L 31.48 7.54 L 31.53 8.08 L 31.58 8.68 L 31.61 9.35 L 31.64 10.13 L 31.66 11.07 L 31.68 12.35 Z" fill="#E0381F"/><path d="M10.836538882803943 15.506681270536692Q10.836538882803943 15.506681270536692 11.498094194961665 15.270098576122672Q12.159649507119386 15.033515881708652 13.193603504928806 14.661117196056955Q14.227557502738225 14.288718510405257 15.357897042716319 13.881270536692224Q16.488236582694412 13.473822562979189 17.45209200438116 13.136473165388828Q18.41594742606791 12.799123767798466 18.924162102957283 12.632639649507118L18.55614457831325 12.965607886089813Q18.740153340635267 12.536254107338443 18.862825848849944 11.883461117196056Q18.98549835706462 11.230668127053669 18.994260679079957 10.293099671412923Q19.003023001095293 9.083899233296822 18.62186199342826 8.321577217962759Q18.24070098576123 7.559255202628696 17.574764512595838 7.559255202628696Q16.821204819277106 7.559255202628696 16.072026286966043 8.124424972617742Q15.322847754654983 8.68959474260679 14.656911281489595 9.754216867469879Q13.990974808324207 10.818838992332967 13.482760131434832 12.321577217962759Q12.974545454545456 13.824315443592551 12.711675794085433 15.708214676889375Q12.33489594742607 18.415772179627602 13.197984665936474 19.870317634173055Q14.061073384446878 21.32486308871851 15.953734939759038 21.32486308871851Q16.961401971522456 21.32486308871851 17.863921139101862 20.904271631982475Q18.76644030668127 20.48368017524644 19.533143483023004 19.620591456736037Q20.299846659364732 18.75750273822563 20.89568455640745 17.434392113910185Q20.957020810514788 17.329244249726177 21.005213581599122 17.285432639649507Q21.05340635268346 17.241621029572837 21.1147426067908 17.259145673603506Q21.176078860898137 17.267907995618838 21.193603504928806 17.346768893756845Q21.211128148959475 17.42562979189485 21.158554216867472 17.548302300109526Q20.440043811610078 19.34457831325301 19.340372398685652 20.610733844468783Q18.24070098576123 21.876889375684556 16.786155531215776 22.53844468784228Q15.33161007667032 23.2 13.544096385542169 23.2Q11.896779846659365 23.2 10.748915662650603 22.442059145673603Q9.60105147864184 21.684118291347204 9.101599123767798 20.194523548740413Q8.602146768893757 18.704928806133623 8.882541073384449 16.54063526834611Q9.136648411829135 14.621686746987951 9.929638554216869 12.930558598028476Q10.722628696604602 11.239430449069003 11.923066812705368 9.951369112814895Q13.123504928806135 8.663307776560787 14.604337349397591 7.931653888280393Q16.085169769989047 7.199999999999999 17.706199342825848 7.199999999999999Q19.090646221248633 7.199999999999999 19.99316538882804 7.769550930996713Q20.89568455640745 8.339101861993427 21.329419496166487 9.26352683461117Q21.76315443592552 10.187951807228915 21.728105147864184 11.25695509309967Q21.719342825848848 11.458488499452354 21.82449069003286 11.563636363636363Q21.92963855421687 11.668784227820371 22.210032858707557 11.660021905805037Q22.3239430449069 11.651259583789702 22.36775465498357 11.681927710843372Q22.41156626506024 11.712595837897041 22.420328587075574 11.765169769989045Q22.437853231106246 11.817743702081051 22.39842278203724 11.861555312157721Q22.358992332968235 11.905366922234391 22.262606790799563 11.940416210295727Q22.043548740416213 12.001752464403065 21.13226725082147 12.308433734939758Q20.220985761226725 12.61511500547645 18.937305585980283 13.057612267250821Q17.653625410733845 13.50010952902519 16.26041621029573 13.97327491785323Q14.867207009857612 14.44644030668127 13.653625410733845 14.867031763417305Q12.440043811610078 15.287623220153339 11.682102957283682 15.550492880613362Q10.924162102957284 15.813362541073383 10.924162102957284 15.813362541073383Z" fill="#FFFFFF"/></svg>