<svg xmlns="http://www.w3.org/2000/svg" viewBox="0 0 188.9 216.0" width="188.9" height="216.0" fill="none">
  <path d="M35.929901423877325 111.83351588170866Q35.929901423877325 111.83351588170866 44.199342825848845 108.87623220153341Q52.46878422782037 105.91894852135817 65.39320920043812 101.26396495071195Q78.31763417305586 96.60898138006573 92.44687842278204 91.51588170865281Q106.5761226725082 86.42278203723988 118.62431544359254 82.20591456736037Q130.67250821467687 77.98904709748084 137.02519167579408 75.90799561883901L132.4249726177437 80.07009857612269Q134.72508214676887 74.70317634173057 136.25848849945234 66.54326396495073Q137.7918948521358 58.38335158817088 137.9014238773275 46.66374589266158Q138.01095290251916 31.548740416210308 133.24644030668128 22.019715224534508Q128.48192771084337 12.490690032858708 120.15772179627601 12.490690032858708Q110.73822562979188 12.490690032858708 101.37349397590361 19.5553121577218Q92.00876232201534 26.619934282584893 83.68455640744797 39.927710843373504Q75.3603504928806 53.235487404162114 69.0076670317634 72.01971522453451Q62.654983570646216 90.80394304490692 59.36911281489594 114.35268346111721Q54.65936473165389 148.19715224534502 65.44797371303395 166.3789704271632Q76.23658269441401 184.5607886089814 99.894852135816 184.5607886089814Q112.49069003285871 184.5607886089814 123.7721796276013 179.30339539978095Q135.0536692223439 174.0460021905805 144.63745892661552 163.25739320920044Q154.22124863088717 152.46878422782038 161.66922234392112 135.92990142387734Q162.43592552026286 134.61555312157722 163.03833515881706 134.06790799561884Q163.6407447973713 133.52026286966048 164.407447973713 133.73932092004384Q165.17415115005474 133.8488499452355 165.3932092004381 134.83461117196057Q165.61226725082145 135.82037239868566 164.9550930996714 137.35377875136913Q155.97371303395397 159.80722891566265 142.22782037239867 175.6341730558598Q128.48192771084337 191.46111719605696 110.30010952902518 199.7305585980285Q92.11829134720699 208.0 69.77437020810515 208.0Q49.1829134720701 208.0 34.83461117196057 198.52573932092005Q20.48630887185104 189.0514786418401 14.24315443592552 170.4315443592552Q7.999999999999999 151.81161007667032 11.504928806133625 124.7579408543264Q14.681270536692223 100.77108433734941 24.593647316538885 79.63198247535598Q34.506024096385545 58.49288061336256 49.51150054764513 42.39211391018621Q64.51697699890471 26.291347207009863 83.02738225629791 17.14567360350493Q101.53778751369111 8.0 121.80065717415116 8.0Q139.1062431544359 8.0 150.3877327491785 15.11938663745893Q161.66922234392112 22.23877327491786 167.09090909090907 33.79408543263966Q172.51259583789704 45.34939759036146 172.07447973713033 58.71193866374591Q171.96495071193866 61.23110624315444 173.27929901423875 62.54545454545456Q174.59364731653886 63.85980284775468 178.09857612267248 63.750273822563Q179.52245345016428 63.640744797371326 180.07009857612266 64.02409638554218Q180.61774370208104 64.40744797371303 180.72727272727272 65.06462212486309Q180.94633077765607 65.72179627601315 180.45345016429354 66.26944140197153Q179.96056955093098 66.81708652792992 178.75575027382254 67.25520262869662Q176.01752464403066 68.02190580503836 164.6265060240964 71.85542168674701Q153.2354874041621 75.68893756845566 137.18948521358158 81.22015334063528Q121.1434830230011 86.7513691128149 103.72836801752464 92.6659364731654Q86.3132530120482 98.58050383351589 71.1434830230011 103.83789704271632Q55.97371303395399 109.09529025191677 46.49945235487404 112.38116100766703Q37.02519167579408 115.66703176341731 37.02519167579408 115.66703176341731Z" fill="#E0381F"/>
</svg>
