<svg xmlns="http://www.w3.org/2000/svg" viewBox="0 0 256 256" width="256" height="256" fill="none"><path d="M 253.44 128.00 L 253.40 158.70 L 253.27 169.48 L 253.06 177.45 L 252.77 183.99 L 252.39 189.64 L 251.92 194.64 L 251.37 199.16 L 250.73 203.28 L 250.01 207.09 L 249.20 210.62 L 248.29 213.91 L 247.30 216.99 L 246.22 219.88 L 245.04 222.59 L 243.77 225.15 L 242.40 227.56 L 240.93 229.83 L 239.36 231.98 L 237.68 233.99 L 235.89 235.89 L 233.99 237.68 L 231.98 239.36 L 229.83 240.93 L 227.56 242.40 L 225.15 243.77 L 222.59 245.04 L 219.88 246.22 L 216.99 247.30 L 213.91 248.29 L 210.62 249.20 L 207.09 250.01 L 203.28 250.73 L 199.16 251.37 L 194.64 251.92 L 189.64 252.39 L 183.99 252.77 L 177.45 253.06 L 169.48 253.27 L 158.70 253.40 L 128.00 253.44 L 97.30 253.40 L 86.52 253.27 L 78.55 253.06 L 72.01 252.77 L 66.36 252.39 L 61.36 251.92 L 56.84 251.37 L 52.72 250.73 L 48.91 250.01 L 45.38 249.20 L 42.09 248.29 L 39.01 247.30 L 36.12 246.22 L 33.41 245.04 L 30.85 243.77 L 28.44 242.40 L 26.17 240.93 L 24.02 239.36 L 22.01 237.68 L 20.11 235.89 L 18.32 233.99 L 16.64 231.98 L 15.07 229.83 L 13.60 227.56 L 12.23 225.15 L 10.96 222.59 L 9.78 219.88 L 8.70 216.99 L 7.71 213.91 L 6.80 210.62 L 5.99 207.09 L 5.27 203.28 L 4.63 199.16 L 4.08 194.64 L 3.61 189.64 L 3.23 183.99 L 2.94 177.45 L 2.73 169.48 L 2.60 158.70 L 2.56 128.00 L 2.60 97.30 L 2.73 86.52 L 2.94 78.55 L 3.23 72.01 L 3.61 66.36 L 4.08 61.36 L 4.63 56.84 L 5.27 52.72 L 5.99 48.91 L 6.80 45.38 L 7.71 42.09 L 8.70 39.01 L 9.78 36.12 L 10.96 33.41 L 12.23 30.85 L 13.60 28.44 L 15.07 26.17 L 16.64 24.02 L 18.32 22.01 L 20.11 20.11 L 22.01 18.32 L 24.02 16.64 L 26.17 15.07 L 28.44 13.60 L 30.85 12.23 L 33.41 10.96 L 36.12 9.78 L 39.01 8.70 L 42.09 7.71 L 45.38 6.80 L 48.91 5.99 L 52.72 5.27 L 56.84 4.63 L 61.36 4.08 L 66.36 3.61 L 72.01 3.23 L 78.55 2.94 L 86.52 2.73 L 97.30 2.60 L 128.00 2.56 L 158.70 2.60 L 169.48 2.73 L 177.45 2.94 L 183.99 3.23 L 189.64 3.61 L 194.64 4.08 L 199.16 4.63 L 203.28 5.27 L 207.09 5.99 L 210.62 6.80 L 213.91 7.71 L 216.99 8.70 L 219.88 9.78 L 222.59 10.96 L 225.15 12.23 L 227.56 13.60 L 229.83 15.07 L 231.98 16.64 L 233.99 18.32 L 235.89 20.11 L 237.68 22.01 L 239.36 24.02 L 240.93 26.17 L 242.40 28.44 L 243.77 30.85 L 245.04 33.41 L 246.22 36.12 L 247.30 39.01 L 248.29 42.09 L 249.20 45.38 L 250.01 48.91 L 250.73 52.72 L 251.37 56.84 L 251.92 61.36 L 252.39 66.36 L 252.77 72.01 L 253.06 78.55 L 253.27 86.52 L 253.40 97.30 Z" fill="#ECE8DD"/><path d="M 253.44 128.00 L 253.40 158.70 L 253.27 169.48 L 253.06 177.45 L 252.77 183.99 L 252.39 189.64 L 251.92 194.64 L 251.37 199.16 L 250.73 203.28 L 250.01 207.09 L 249.20 210.62 L 248.29 213.91 L 247.30 216.99 L 246.22 219.88 L 245.04 222.59 L 243.77 225.15 L 242.40 227.56 L 240.93 229.83 L 239.36 231.98 L 237.68 233.99 L 235.89 235.89 L 233.99 237.68 L 231.98 239.36 L 229.83 240.93 L 227.56 242.40 L 225.15 243.77 L 222.59 245.04 L 219.88 246.22 L 216.99 247.30 L 213.91 248.29 L 210.62 249.20 L 207.09 250.01 L 203.28 250.73 L 199.16 251.37 L 194.64 251.92 L 189.64 252.39 L 183.99 252.77 L 177.45 253.06 L 169.48 253.27 L 158.70 253.40 L 128.00 253.44 L 97.30 253.40 L 86.52 253.27 L 78.55 253.06 L 72.01 252.77 L 66.36 252.39 L 61.36 251.92 L 56.84 251.37 L 52.72 250.73 L 48.91 250.01 L 45.38 249.20 L 42.09 248.29 L 39.01 247.30 L 36.12 246.22 L 33.41 245.04 L 30.85 243.77 L 28.44 242.40 L 26.17 240.93 L 24.02 239.36 L 22.01 237.68 L 20.11 235.89 L 18.32 233.99 L 16.64 231.98 L 15.07 229.83 L 13.60 227.56 L 12.23 225.15 L 10.96 222.59 L 9.78 219.88 L 8.70 216.99 L 7.71 213.91 L 6.80 210.62 L 5.99 207.09 L 5.27 203.28 L 4.63 199.16 L 4.08 194.64 L 3.61 189.64 L 3.23 183.99 L 2.94 177.45 L 2.73 169.48 L 2.60 158.70 L 2.56 128.00 L 2.60 97.30 L 2.73 86.52 L 2.94 78.55 L 3.23 72.01 L 3.61 66.36 L 4.08 61.36 L 4.63 56.84 L 5.27 52.72 L 5.99 48.91 L 6.80 45.38 L 7.71 42.09 L 8.70 39.01 L 9.78 36.12 L 10.96 33.41 L 12.23 30.85 L 13.60 28.44 L 15.07 26.17 L 16.64 24.02 L 18.32 22.01 L 20.11 20.11 L 22.01 18.32 L 24.02 16.64 L 26.17 15.07 L 28.44 13.60 L 30.85 12.23 L 33.41 10.96 L 36.12 9.78 L 39.01 8.70 L 42.09 7.71 L 45.38 6.80 L 48.91 5.99 L 52.72 5.27 L 56.84 4.63 L 61.36 4.08 L 66.36 3.61 L 72.01 3.23 L 78.55 2.94 L 86.52 2.73 L 97.30 2.60 L 128.00 2.56 L 158.70 2.60 L 169.48 2.73 L 177.45 2.94 L 183.99 3.23 L 189.64 3.61 L 194.64 4.08 L 199.16 4.63 L 203.28 5.27 L 207.09 5.99 L 210.62 6.80 L 213.91 7.71 L 216.99 8.70 L 219.88 9.78 L 222.59 10.96 L 225.15 12.23 L 227.56 13.60 L 229.83 15.07 L 231.98 16.64 L 233.99 18.32 L 235.89 20.11 L 237.68 22.01 L 239.36 24.02 L 240.93 26.17 L 242.40 28.44 L 243.77 30.85 L 245.04 33.41 L 246.22 36.12 L 247.30 39.01 L 248.29 42.09 L 249.20 45.38 L 250.01 48.91 L 250.73 52.72 L 251.37 56.84 L 251.92 61.36 L 252.39 66.36 L 252.77 72.01 L 253.06 78.55 L 253.27 86.52 L 253.40 97.30 Z" fill="none" stroke="#16130F" stroke-opacity="0.10" stroke-width="2"/><path d="M 117.00 60.45 L 89.00 60.45 L 50.00 128.00 L 89.00 195.55 L 117.00 195.55" stroke="#16130F" stroke-width="27" fill="none" stroke-linejoin="miter" stroke-linecap="butt"/><path d="M 139.00 60.45 L 167.00 60.45 L 206.00 128.00 L 167.00 195.55 L 139.00 195.55" stroke="#E0381F" stroke-width="27" fill="none" stroke-linejoin="miter" stroke-linecap="butt"/></svg>
