<svg xmlns="http://www.w3.org/2000/svg" viewBox="0 0 479.0 120" width="479.0" height="120" fill="none">
  <path d="M 118.20 60.00 L 118.18 73.53 L 118.14 78.29 L 118.06 81.80 L 117.95 84.69 L 117.81 87.19 L 117.64 89.40 L 117.44 91.40 L 117.21 93.23 L 116.94 94.93 L 116.65 96.50 L 116.32 97.98 L 115.96 99.36 L 115.56 100.66 L 115.13 101.89 L 114.67 103.06 L 114.18 104.16 L 113.64 105.20 L 113.08 106.19 L 112.47 107.13 L 111.83 108.03 L 111.15 108.87 L 110.43 109.67 L 109.67 110.43 L 108.87 111.15 L 108.03 111.83 L 107.13 112.47 L 106.19 113.08 L 105.20 113.64 L 104.16 114.18 L 103.06 114.67 L 101.89 115.13 L 100.66 115.56 L 99.36 115.96 L 97.98 116.32 L 96.50 116.65 L 94.93 116.94 L 93.23 117.21 L 91.40 117.44 L 89.40 117.64 L 87.19 117.81 L 84.69 117.95 L 81.80 118.06 L 78.29 118.14 L 73.53 118.18 L 60.00 118.20 L 46.47 118.18 L 41.71 118.14 L 38.20 118.06 L 35.31 117.95 L 32.81 117.81 L 30.60 117.64 L 28.60 117.44 L 26.77 117.21 L 25.07 116.94 L 23.50 116.65 L 22.02 116.32 L 20.64 115.96 L 19.34 115.56 L 18.11 115.13 L 16.94 114.67 L 15.84 114.18 L 14.80 113.64 L 13.81 113.08 L 12.87 112.47 L 11.97 111.83 L 11.13 111.15 L 10.33 110.43 L 9.57 109.67 L 8.85 108.87 L 8.17 108.03 L 7.53 107.13 L 6.92 106.19 L 6.36 105.20 L 5.82 104.16 L 5.33 103.06 L 4.87 101.89 L 4.44 100.66 L 4.04 99.36 L 3.68 97.98 L 3.35 96.50 L 3.06 94.93 L 2.79 93.23 L 2.56 91.40 L 2.36 89.40 L 2.19 87.19 L 2.05 84.69 L 1.94 81.80 L 1.86 78.29 L 1.82 73.53 L 1.80 60.00 L 1.82 46.47 L 1.86 41.71 L 1.94 38.20 L 2.05 35.31 L 2.19 32.81 L 2.36 30.60 L 2.56 28.60 L 2.79 26.77 L 3.06 25.07 L 3.35 23.50 L 3.68 22.02 L 4.04 20.64 L 4.44 19.34 L 4.87 18.11 L 5.33 16.94 L 5.82 15.84 L 6.36 14.80 L 6.92 13.81 L 7.53 12.87 L 8.17 11.97 L 8.85 11.13 L 9.57 10.33 L 10.33 9.57 L 11.13 8.85 L 11.97 8.17 L 12.87 7.53 L 13.81 6.92 L 14.80 6.36 L 15.84 5.82 L 16.94 5.33 L 18.11 4.87 L 19.34 4.44 L 20.64 4.04 L 22.02 3.68 L 23.50 3.35 L 25.07 3.06 L 26.77 2.79 L 28.60 2.56 L 30.60 2.36 L 32.81 2.19 L 35.31 2.05 L 38.20 1.94 L 41.71 1.86 L 46.47 1.82 L 60.00 1.80 L 73.53 1.82 L 78.29 1.86 L 81.80 1.94 L 84.69 2.05 L 87.19 2.19 L 89.40 2.36 L 91.40 2.56 L 93.23 2.79 L 94.93 3.06 L 96.50 3.35 L 97.98 3.68 L 99.36 4.04 L 100.66 4.44 L 101.89 4.87 L 103.06 5.33 L 104.16 5.82 L 105.20 6.36 L 106.19 6.92 L 107.13 7.53 L 108.03 8.17 L 108.87 8.85 L 109.67 9.57 L 110.43 10.33 L 111.15 11.13 L 111.83 11.97 L 112.47 12.87 L 113.08 13.81 L 113.64 14.80 L 114.18 15.84 L 114.67 16.94 L 115.13 18.11 L 115.56 19.34 L 115.96 20.64 L 116.32 22.02 L 116.65 23.50 L 116.94 25.07 L 117.21 26.77 L 117.44 28.60 L 117.64 30.60 L 117.81 32.81 L 117.95 35.31 L 118.06 38.20 L 118.14 41.71 L 118.18 46.47 Z" fill="#E0381F"/>
  <path d="M41.91768893756846 57.446549835706456Q41.91768893756846 57.446549835706456 44.17524644030668 56.63921139101862Q46.43280394304491 55.831872946330776 49.96117196056956 54.56106243154436Q53.4895399780942 53.29025191675794 57.34682365826944 51.89983570646221Q61.204107338444686 50.50941949616648 64.49326396495071 49.358214676889375Q67.78242059145674 48.20700985761226 69.51670317634174 47.63888280394304L68.26084337349397 48.775136911281486Q68.88877327491785 47.30996714129243 69.30739320920043 45.082311062431536Q69.72601314348302 42.85465498357064 69.75591456736035 39.6552026286966Q69.78581599123768 35.5288061336254 68.48510405257393 32.92738225629791Q67.18439211391018 30.32595837897042 64.91188389923329 30.32595837897042Q62.34036144578313 30.32595837897042 59.78378970427163 32.25460021905805Q57.227217962760136 34.18324205914567 54.954709748083246 37.81626506024096Q52.68220153340636 41.44928806133625 50.94791894852136 46.57738225629791Q49.21363636363637 51.70547645125958 48.31659364731654 58.134282584884986Q47.03083242059146 67.37382256297919 49.97612267250821 72.33745892661554Q52.92141292442497 77.30109529025191 59.38012048192771 77.30109529025191Q62.81878422782037 77.30109529025191 65.8986308871851 75.8658269441402Q68.97847754654984 74.43055859802847 71.594852135816 71.48526834611171Q74.21122672508216 68.53997809419495 76.24452354874042 64.0248630887185Q76.45383351588171 63.66604600219057 76.61829134720702 63.516538882803935Q76.78274917853231 63.3670317634173 76.99205914567361 63.426834611171955Q77.20136911281489 63.45673603504928 77.26117196056956 63.72584884994523Q77.32097480832421 63.99496166484118 77.14156626506025 64.41358159912376Q74.68964950711938 70.54337349397589 70.93702081051478 74.86412924424971Q67.18439211391018 79.18488499452354 62.22075575027382 81.44244249726177Q57.257119386637456 83.69999999999999 51.15722891566265 83.69999999999999Q45.535761226725086 83.69999999999999 41.61867469879518 81.11352683461116Q37.70158817086528 78.52705366922234 35.99720700985761 73.44381161007666Q34.292825848849944 68.36056955093099 35.24967141292443 60.9749178532311Q36.116812705366925 54.42650602409638 38.82289156626506 48.65553121577217Q41.5289704271632 42.88455640744797 45.625465498357066 38.48904709748082Q49.72196056955093 34.09353778751368 54.77530120481928 31.59676889375684Q59.82864184008763 29.099999999999994 65.36040525739321 29.099999999999994Q70.08483023001095 29.099999999999994 73.16467688937568 31.04359255202628Q76.24452354874042 32.987185104052564 77.72464403066812 36.14178532311061Q79.20476451259583 39.296385542168665 79.08515881708652 42.94435925520262Q79.0552573932092 43.63209200438116 79.41407447973714 43.990909090909085Q79.77289156626506 44.34972617743701 80.72973713033954 44.319824753559686Q81.1184556407448 44.28992332968236 81.26796276013144 44.39457831325301Q81.41746987951808 44.499233296823654 81.4473713033954 44.678641840087614Q81.50717415115005 44.85805038335158 81.37261774370208 45.00755750273822Q81.2380613362541 45.15706462212486 80.9091456736035 45.276670317634164Q80.16161007667031 45.48598028477546 77.05186199342826 46.53253012048192Q73.94211391018621 47.57907995618838 69.56155531215772 49.08910186199342Q65.18099671412924 50.59912376779846 60.42667031763417 52.21380065717415Q55.6723439211391 53.828477546549834 51.530996714129245 55.263745892661554Q47.38964950711939 56.69901423877327 44.80317634173056 57.5960569550931Q42.21670317634173 58.49309967141292 42.21670317634173 58.49309967141292Z" fill="#FFFFFF"/>
  <path d="M169.0483955413938 59.76368371840559H177.91667294510648Q179.88204696542974 59.76368371840559 180.74965687855246 58.89866712729649Q181.61726679167518 58.03365053618739 181.80277388452427 55.69856470156382Q181.8506837699561 55.43312485324279 181.95443021410205 55.31513732815027Q182.05817665824802 55.19714980305776 182.2226135297831 55.18258523374282Q182.61461787261686 55.1301471413705 182.75219322623317 55.68530440003739L185.24234120780153 64.21721021421904Q185.32488771607748 64.48361950031398 185.25626245539084 64.64158757030825Q185.1876371947042 64.79955564030253 184.9985982454447 64.857175238611Q184.82930552970802 64.90216953883173 184.66891179011503 64.84406788888413Q184.50851805052204 64.78596623893652 184.35928486106533 64.59821804245311Q183.397134469505 63.05175137755006 182.60430315248638 62.220406199539724Q181.81147183546776 61.38906102152938 180.89967496032017 61.06807953112344Q179.9878780851726 60.747098040717496 178.67255508866742 60.747098040717496H169.0483955413938ZM160.8 41.705934433966895Q160.8 41.516894496944126 160.93789708336428 41.40813028635671Q161.07579416672854 41.2993660757693 161.36291699032196 41.2993660757693H183.36639164511683Q184.02613752148932 41.2993660757693 184.5292089457311 41.07017521411258Q185.0322803699729 40.84098435245586 185.40213286529763 40.6142209190183Q185.77198536062238 40.38745748558074 186.02414491187392 40.38745748558074Q186.26497426454617 40.38745748558074 186.4015747066876 40.54672142594068Q186.538175148829 40.705985366300624 186.66604177733197 41.19835768248162L188.91466252913602 49.80571218947894Q189.00368283783854 50.07568656699937 188.92534737039364 50.23203442826656Q188.84701190294874 50.38838228953375 188.65149915326265 50.44923878805552Q188.45145637938128 50.50394378891613 188.27471797510236 50.42253433126109Q188.0979795708234 50.34112487360605 187.95327992280286 50.08637105214559Q186.65151894009233 47.67262112361765 185.58350302867262 46.14994259900867Q184.5154871172529 44.62726407439968 183.53958621251175 43.779566367730126Q182.5636853077706 42.93186866106056 181.5500845981719 42.61217987989083Q180.5364838885732 42.292491098721094 179.32866193242015 42.292491098721094H170.623301170666V77.30132583676884Q170.623301170666 78.06788349360053 171.08669493024587 78.44873489379722Q171.55008868982577 78.82958629399391 172.4823717199017 78.82958629399391H179.74915922627724Q181.41569694439966 78.82958629399391 182.73765781787114 78.11105701420767Q184.0596186913426 77.39252773442144 185.48714034761088 75.28890952994419Q186.91466200387913 73.18529132546696 188.83410757588518 69.02500559934957Q188.96424166682755 68.79129014763063 189.1142773729325 68.68996929394754Q189.26431307903744 68.58864844026445 189.4601526364931 68.6236107248431Q189.68512232034192 68.65403946798561 189.77381505041768 68.8424368541399Q189.86250778049347 69.0308342402942 189.77348747179093 69.35001079773691L187.1988541063988 79.8470073356695Q187.07422437810914 80.32125137455269 186.92872320120358 80.50608878687106Q186.78322202429806 80.69092619918945 186.5245902143343 80.69092619918945Q186.22516111558528 80.69092619918945 185.83863637694787 80.47387247862852Q185.45211163831044 80.25681875806758 184.88089471295112 80.03976503750664Q184.3096777875918 79.82271131694571 183.43140694310986 79.82271131694571H161.36291699032196Q161.07579416672854 79.82271131694571 160.93789708336428 79.70407398959688Q160.8 79.58543666224806 160.8 79.41614295874811Q160.8 79.06751650162443 161.30336357542086 78.96004774665691L163.64454672751702 78.59715167641541Q164.19390514214933 78.4958273846273 164.4625937071451 78.27473167815927Q164.73128227214085 78.05363597169124 164.73128227214085 77.64737217178295V43.47470522093206Q164.73128227214085 43.06844142102378 164.4625937071451 42.84151847612013Q164.19390514214933 42.61459553121649 163.64454672751702 42.524925716299606L161.30336357542086 42.162029646058095Q160.8 42.05456089109058 160.8 41.705934433966895Z M200.5024302257269 77.68588654572272Q200.5024302257269 78.0927928173636 200.71219510196383 78.33978499027683Q200.92195997820076 78.58677716319005 201.36188744593832 78.65281785539732L204.47289996994172 78.9998588409554Q204.74772485716807 79.02219483968304 204.87558844324536 79.13451902410637Q205.00345202932266 79.24684320852968 205.00345202932266 79.43880126024119Q205.00345202932266 79.82271131694571 204.4884459121958 79.82271131694571H192.62700861448698Q192.4269668283689 79.82271131694571 192.29538288793015 79.72155513188622Q192.1637989474914 79.62039894682671 192.1637989474914 79.46405284417996Q192.1637989474914 79.28601673177906 192.28696714902853 79.18097532589483Q192.41013535056567 79.07593392001061 192.65355952739796 79.02932166356487L194.5713367176389 78.69361032263495Q195.01190780314408 78.59034675961966 195.21875758805152 78.36795686227053Q195.42560737295895 78.1455669649214 195.42560737295895 77.79822857282444V57.71641478594578Q195.42560737295895 57.40824837538385 195.28058781244528 57.19298158683599Q195.13556825193157 56.97771479828813 194.75910408017387 56.88708103836473L191.9724061112223 56.344500865179626Q191.64742272563285 56.241566639411516 191.52619879420865 56.12989126948125Q191.40497486278448 56.01821589955098 191.40497486278448 55.85798224444157Q191.40497486278448 55.69969236556349 191.52911536718307 55.60144783372848Q191.65325587158162 55.503203301893464 191.86916084376404 55.503203301893464H196.07269783779014L195.47869908087043 55.93598671709134V55.32515185722535Q195.47869908087043 54.40481102933144 195.10285459935062 53.516673903295064Q194.72701011783082 52.62853677725869 194.22637046854055 51.67726962447626Q193.72573081925032 50.72600247169383 193.3498863377305 49.60688267180569Q192.9740418562107 48.48776287191755 192.9740418562107 47.11711117319135Q192.9740418562107 43.99151273902016 194.95217120428612 42.127495455576494Q196.9303005523615 40.26347817213282 200.2005852368095 40.26347817213282Q202.27534839281634 40.26347817213282 203.68986532381945 40.9547954346735Q205.10438225482258 41.64611269721417 205.82045881448374 42.79226629114393Q206.5365353741449 43.938419885073685 206.5365353741449 45.290950340983834Q206.5365353741449 46.64803465041668 205.87547295920876 47.33401905557036Q205.21441054427265 48.020003460724034 204.17069707203794 48.020003460724034Q203.09655386889744 48.020003460724034 202.3917845871155 47.30018350729757Q201.68701530533355 46.5803635538711 201.68701530533355 45.31165633105252V43.440745058061516Q201.68701530533355 42.27665146644379 201.10319590294912 41.67162489586793Q200.5193765005647 41.06659832529207 199.33618977801527 41.06659832529207Q197.68100407127 41.071453181730384 196.71841547344258 42.15430597493766Q195.75582687561513 43.23715876814493 195.75582687561513 45.16460627226026Q195.75582687561513 46.46373951233918 196.2186078607351 47.61687094990579Q196.68138884585505 48.7700023874724 197.37305060057196 49.798982235468245Q198.0647123552889 50.827962083464094 198.75637411000582 51.77827082357534Q199.44803586472273 52.72857956368659 199.91081684984266 53.64683140881908Q200.37359783496262 54.565083253951585 200.37359783496262 55.47830733487107V56.12442310656854L199.9543877385079 55.503203301893464H205.29704988138377Q205.56248874194154 55.503203301893464 205.69229357477258 55.589631019871604Q205.8220984076036 55.67605873784974 205.8220984076036 55.86283611311663Q205.8220984076036 56.139284291063646 205.5401470526068 56.31667601483977Q205.25819569761006 56.4940677386159 204.69947856474465 56.4940677386159H200.5024302257269Z M215.47150151944118 77.68588654572272Q215.47150151944118 78.0927928173636 215.6812663956781 78.33978499027683Q215.89103127191504 78.58677716319005 216.3309587396526 78.65281785539732L219.441971263656 78.9998588409554Q219.71679615088235 79.02219483968304 219.84465973695964 79.13451902410637Q219.97252332303694 79.24684320852968 219.97252332303694 79.43880126024119Q219.97252332303694 79.82271131694571 219.45751720591008 79.82271131694571H207.59607990820126Q207.39603812208318 79.82271131694571 207.26445418164442 79.72155513188622Q207.13287024120567 79.62039894682671 207.13287024120567 79.46405284417996Q207.13287024120567 79.28601673177906 207.2560384427428 79.18097532589483Q207.37920664427995 79.07593392001061 207.62263082111224 79.02932166356487L209.54040801135318 78.69361032263495Q209.98097909685836 78.59034675961966 210.1878288817658 78.36795686227053Q210.39467866667323 78.1455669649214 210.39467866667323 77.79822857282444V57.71641478594578Q210.39467866667323 57.40824837538385 210.24965910615953 57.19298158683599Q210.10463954564585 56.97771479828813 209.72817537388815 56.88708103836473L206.9414774049366 56.344500865179626Q206.61649401934713 56.241566639411516 206.49527008792296 56.12989126948125Q206.37404615649876 56.01821589955098 206.37404615649876 55.85798224444157Q206.37404615649876 55.69969236556349 206.49818666089732 55.60144783372848Q206.6223271652959 55.503203301893464 206.83823213747831 55.503203301893464H211.04176913150442L210.4477703745847 55.93598671709134V55.32515185722535Q210.4477703745847 54.40481102933144 210.0719258930649 53.516673903295064Q209.6960814115451 52.62853677725869 209.19544176225486 51.67726962447626Q208.6948021129646 50.72600247169383 208.3189576314448 49.60688267180569Q207.94311314992498 48.48776287191755 207.94311314992498 47.11711117319135Q207.94311314992498 43.99151273902016 209.92124249800037 42.127495455576494Q211.89937184607578 40.26347817213282 215.1696565305238 40.26347817213282Q217.24441968653062 40.26347817213282 218.65893661753375 40.9547954346735Q220.07345354853686 41.64611269721417 220.78953010819802 42.79226629114393Q221.50560666785918 43.938419885073685 221.50560666785918 45.290950340983834Q221.50560666785918 46.64803465041668 220.84454425292307 47.33401905557036Q220.18348183798693 48.020003460724034 219.13976836575222 48.020003460724034Q218.06562516261172 48.020003460724034 217.36085588082977 47.30018350729757Q216.65608659904782 46.5803635538711 216.65608659904782 45.31165633105252V43.440745058061516Q216.65608659904782 42.27665146644379 216.0722671966634 41.67162489586793Q215.488447794279 41.06659832529207 214.30526107172955 41.06659832529207Q212.65007536498427 41.071453181730384 211.68748676715683 42.15430597493766Q210.7248981693294 43.23715876814493 210.7248981693294 45.16460627226026Q210.7248981693294 46.46373951233918 211.18767915444937 47.61687094990579Q211.65046013956933 48.7700023874724 212.34212189428627 49.798982235468245Q213.03378364900317 50.827962083464094 213.72544540372007 51.77827082357534Q214.417107158437 52.72857956368659 214.87988814355697 53.64683140881908Q215.3426691286769 54.565083253951585 215.3426691286769 55.47830733487107V56.12442310656854L214.92345903222218 55.503203301893464H220.26612117509805Q220.53156003565581 55.503203301893464 220.66136486848683 55.589631019871604Q220.79116970131787 55.67605873784974 220.79116970131787 55.86283611311663Q220.79116970131787 56.139284291063646 220.50921834632112 56.31667601483977Q220.22726699132434 56.4940677386159 219.66854985845893 56.4940677386159H215.47150151944118Z M243.47237201657754 64.84176057743412Q243.47237201657754 65.36647541967433 243.1527194732806 65.65570287483985Q242.83306692998366 65.94493033000538 242.2177144148998 65.94493033000538H225.06709655431368V65.13922689217199H237.55423334022905Q238.2634717304481 65.13922689217199 238.2634717304481 64.44745628750158Q238.2634717304481 60.14118770801735 236.76627003854975 57.90698679237828Q235.2690683466514 55.6727858767392 232.89752611927005 55.6727858767392Q230.9040799305632 55.6727858767392 229.46354333722235 56.86893448601144Q228.02300674388152 58.06508309528368 227.2378335408859 60.33454816747648Q226.4526603378903 62.60401323966927 226.4526603378903 65.81408832606661Q226.4526603378903 71.42037319696634 228.93674994380444 74.33259856989383Q231.4208395497186 77.24482394282133 235.3990776427876 77.24482394282133Q238.13488158114106 77.24482394282133 240.12141416280554 75.75503150375278Q242.10794674447 74.26523906468422 242.61034174974134 71.72817857411016Q242.72557604567479 71.51680010888214 242.8270569838415 71.43668377520906Q242.92853792200816 71.35656744153599 243.03211829502146 71.35656744153599Q243.1920251423613 71.35656744153599 243.27910293957132 71.48588461125667Q243.3661807367813 71.61520178097736 243.34967140347177 71.85280577292221Q243.13796016289155 74.27462995103325 241.76212407264018 76.21150268297973Q240.3862879823888 78.14837541492622 238.15856406930882 79.27365771851184Q235.93084015622884 80.39894002209746 233.1497066156951 80.39894002209746Q229.72826484096325 80.39894002209746 227.14429599171132 78.88811642654238Q224.56032714245939 77.37729283098732 223.11748530852714 74.60977082116091Q221.67464347459492 71.84224881133451 221.67464347459492 68.11067815857305Q221.67464347459492 64.24215470752065 223.13593899108554 61.23167664274291Q224.59723450757613 58.22119857796517 227.26408244261648 56.491218824144795Q229.93093037765686 54.761239070324415 233.5326945767371 54.761239070324415Q236.56147681037865 54.761239070324415 238.7909759782156 56.05986998624558Q241.02047514605255 57.358500902166746 242.24642358131504 59.632033073399306Q243.47237201657754 61.905565244631866 243.47237201657754 64.84176057743412Z M266.61710590304864 61.17391399220415Q266.61710590304864 62.37172704981977 265.89874589652754 63.133790268175616Q265.18038589000645 63.895853486531465 263.97804099094077 63.895853486531465Q262.76598187399435 63.895853486531465 262.0608900124714 63.14997034337383Q261.3557981509485 62.404087200216196 261.3557981509485 61.07579696199103V59.68143789363158Q261.3557981509485 57.864703553994026 260.18459492597395 56.77068791858044Q259.0133917009994 55.67667228316686 256.96556905732047 55.67667228316686Q254.95172238646464 55.67667228316686 253.43170926393552 56.925270780771335Q251.9116961414064 58.17386927837581 251.06890112716817 60.4277922816668Q250.22610611292995 62.68171528495778 250.22610611292995 65.70529740056273Q250.22610611292995 69.35173758915433 251.3601035579841 71.86756609444623Q252.49410100303825 74.38339459973815 254.45585486362154 75.67618926721543Q256.41760872420485 76.96898393469272 258.8934322822501 76.96898393469272Q261.4625018523114 76.96898393469272 263.332649274932 75.72719088589844Q265.2027966975527 74.48539783710416 265.96613559145635 72.06230681468034Q266.08914032903925 71.86258282632353 266.1906212672059 71.78440851026136Q266.2921022053726 71.70623419419917 266.41607831812314 71.71400463584861Q266.57598516546295 71.72177507749805 266.6412106159331 71.85643526064902Q266.70643606640334 71.99109544379998 266.68215629144436 72.18111070704342Q266.2286023945444 74.70005236414012 264.85163219789547 76.53736714724948Q263.4746620012466 78.37468193035883 261.37951126551786 79.36932926092132Q259.28436052978907 80.3639765914838 256.63239966466875 80.3639765914838Q253.39355496947812 80.3639765914838 250.84617511456412 78.91337451151334Q248.29879525965012 77.46277243154287 246.83070601117336 74.7010812169609Q245.3626167626966 71.93939000237893 245.3626167626966 68.00968375798323Q245.3626167626966 64.28748905498294 246.8915714215011 61.293195451703745Q248.42052608030565 58.29890184842455 251.16004805901392 56.530070459374485Q253.89957003772219 54.761239070324415 257.52787337281984 54.761239070324415Q260.39641195358047 54.761239070324415 262.42341596302083 55.62444989897877Q264.45041997246125 56.48766072763313 265.53376293775494 57.94426196605063Q266.61710590304864 59.400863204468145 266.61710590304864 61.17391399220415Z M270.21859735440904 56.59121003756248 267.98420879224705 56.162590835467384Q267.687704485122 56.07713423474773 267.57392448361963 55.971607912136875Q267.4601444821173 55.866081589526026 267.4601444821173 55.70908483462992Q267.4601444821173 55.53461045468535 267.58687356611773 55.436365922850335Q267.71360265011816 55.33812139101532 267.90231577937135 55.33812139101532H270.2024134044234Q270.58243496190505 55.33812139101532 270.80724511522135 55.22077985489629Q271.0320552685377 55.10343831877726 271.1939112266045 54.80466382333066L274.61495360342275 50.09438009787247Q274.82180836671444 49.823443750872045 275.0189503747038 49.689105870486515Q275.2160923826932 49.554767990100984 275.43038643313236 49.554767990100984Q275.65827759063905 49.554767990100984 275.78646741146844 49.69736271050748Q275.9146572322978 49.83995743091398 275.9146572322978 50.10896335842375V73.90593539430368Q275.9146572322978 75.95837784571724 276.7268870108297 76.97973921609993Q277.5391167893617 78.00110058648262 278.96254066011915 78.00110058648262Q279.6449296639892 78.00110058648262 280.15463078468053 77.79586559667075Q280.6643319053719 77.59063060685887 281.05345439189125 77.2325921790073Q281.44257687841053 76.87455375115574 281.75788815193727 76.41873328137738Q282.073199425464 75.96291281159903 282.3587169783533 75.46174185166608Q282.5011436711671 75.36461488785692 282.6269100748998 75.44343282168671Q282.7526764786325 75.5222507555165 282.7138266415912 75.7915801318267Q282.3991439100389 77.20016565678303 281.6432397177076 78.20503168224872Q280.8873355253763 79.2098977077144 279.7057346715069 79.74518115210071Q278.5241338176375 80.28046459648701 276.9404528581225 80.28046459648701Q274.1013392426835 80.28046459648701 272.48512769440555 78.87888495202205Q270.8689161461276 77.4773053075571 270.8689161461276 74.59288575812323V57.43672828621002Q270.8689161461276 57.0728815485668 270.7300485771567 56.8725073227064Q270.5911810081858 56.672133096846 270.21859735440904 56.59121003756248ZM274.0114722744836 56.32898582773775 274.10471757427683 55.33812139101532H282.1486567707414Q282.4140932600933 55.33812139101532 282.5400128720996 55.430376347429075Q282.6659324841059 55.52263130384282 282.6659324841059 55.72106315598092Q282.6659324841059 55.98197045062907 282.38398231471206 56.155478139183415Q282.1020321453183 56.32898582773775 281.52777650035983 56.32898582773775Z M292.1990122436539 55.562403157410785V77.70466432923489Q292.1990122436539 78.15559996832673 292.394211068931 78.40518591756725Q292.5894098942081 78.65477186680779 292.9904945593861 78.74346987274488L294.5806326827537 79.01086618281813Q294.8405697101364 79.06071533947717 294.9486853832063 79.16802351607946Q295.0568010562762 79.27533169268175 295.0568010562762 79.44203816045449Q295.0568010562762 79.60939160496397 294.9276450379382 79.71605146095484Q294.79848901960025 79.82271131694571 294.53208423850947 79.82271131694571H284.6220666925554Q284.39159616329476 79.82271131694571 284.2609823523512 79.71605146095484Q284.13036854140773 79.60939160496397 284.13036854140773 79.44203816045449Q284.13036854140773 79.3034955028625 284.2360567862585 79.20201456469582Q284.3417450311092 79.10053362652914 284.5735182483112 79.03902999299889L286.25300265865934 78.74346987274488Q286.6618577654868 78.64991701036948 286.85317136993916 78.40518591756725Q287.04448497439154 78.16045482476504 287.04448497439154 77.73282813941564V58.35905019367206Q287.04448497439154 58.07580986358606 286.93442384560575 57.93305490042424Q286.82436271681996 57.79029993726242 286.5537416381032 57.774115436195935L284.49164108352096 57.75145713470286Q284.2847957640497 57.72879883320978 284.18800825396306 57.632819313472396Q284.0912207438765 57.53683979373501 284.0912207438765 57.400236407370215Q284.0912207438765 57.227376466409794 284.2007951973152 57.13059022106197Q284.3103696507539 57.03380397571415 284.5609112457804 56.949643028454076L290.56107496643745 55.17169095079575Q290.97962753443284 55.02796662899588 291.1989330876889 54.98054539443763Q291.41823864094494 54.933124159879384 291.58818536790005 54.933124159879384Q291.89602623399617 54.933124159879384 292.04751923882503 55.1074396409433Q292.1990122436539 55.28175512200721 292.1990122436539 55.562403157410785ZM289.3378664784239 50.301408264255585Q287.8584143312375 50.301408264255585 286.93707588950986 49.35707908129254Q286.01573744778216 48.412749898329494 286.01573744778216 47.012284739896806Q286.01573744778216 45.59854714836788 286.948730366381 44.659882293837285Q287.8817232849799 43.72121743930669 289.3378664784239 43.72121743930669Q290.82994392369807 43.72121743930669 291.77119269455466 44.66813696049205Q292.71244146541125 45.61505648167741 292.71244146541125 47.012284739896806Q292.71244146541125 48.412749898329494 291.76536545611907 49.35707908129254Q290.81828944682684 50.301408264255585 289.3378664784239 50.301408264255585Z M308.9400829296314 79.9780808300681H307.0180271249324Q306.6878477306311 79.9780808300681 306.444742320257 79.807488647589Q306.2016369098828 79.63689646510991 306.06438638850955 79.2869698495225L297.8919389184307 57.99321897648852Q297.61711035569175 57.27943811396092 297.31459438337197 56.88352624218785Q297.01207841105224 56.487614370414775 296.53361799540727 56.399561365687916L295.4245362168767 56.174893435110356Q295.13158151063817 56.09396488305944 295.01067606869657 55.99296984938266Q294.88977062675497 55.89197481570588 294.88977062675497 55.723649403944854Q294.88977062675497 55.532016184476404 295.0276672162376 55.43506878774586Q295.16556380572024 55.33812139101532 295.3766129337011 55.33812139101532H306.3688738163686Q306.8806430332821 55.33812139101532 306.8806430332821 55.71879454750654Q306.8806430332821 55.887119959267565 306.77495429454973 55.984715182727896Q306.6692655558174 56.08231040618823 306.38505325847984 56.14511068094132L305.0943542316328 56.38661376483472Q303.6722315862382 56.66145781811262 303.3973873351206 57.1582041847652Q303.12254308400304 57.65495055141778 303.5307437839326 58.741331150345026L310.22241053489387 76.59694885691421L309.22595594116535 77.9421659312554L316.20510129090815 59.098771466219176Q316.6615425969594 57.861515575739304 316.3400756959452 57.24432854912338Q316.01860879493097 56.62714152250746 314.6531476912851 56.38661376483472L313.2459038957258 56.14511068094132Q312.9765829754728 56.08231040618823 312.86344854819816 55.98714261094705Q312.7503141209235 55.89197481570588 312.7503141209235 55.71879454750654Q312.7503141209235 55.52716132803809 312.88821071040616 55.432641359526706Q313.0261072998888 55.33812139101532 313.26208333783705 55.33812139101532H320.5996049278022Q320.8300789743037 55.33812139101532 320.95826310452605 55.43506878774586Q321.08644723474833 55.532016184476404 321.08644723474833 55.723649403944854Q321.08644723474833 55.88226411506598 320.9713690312424 55.98649604895606Q320.8562908277364 56.09072798284615 320.53226024334685 56.16841963468376L319.52581315024725 56.360065539673116Q318.8896765974458 56.5012149947232 318.442443213563 57.064178439030684Q317.9952098296802 57.627141883338176 317.5688682460678 58.79740795592342L309.8419282036863 79.34135254761767Q309.70759326752415 79.69872141364235 309.4737139180388 79.83840112185521Q309.2398345685535 79.9780808300681 308.9400829296314 79.9780808300681Z M342.89011941398496 64.84176057743412Q342.89011941398496 65.36647541967433 342.57046687068805 65.65570287483985Q342.2508143273911 65.94493033000538 341.6354618123072 65.94493033000538H324.48484395172113V65.13922689217199H336.9719807376365Q337.6812191278555 65.13922689217199 337.6812191278555 64.44745628750158Q337.6812191278555 60.14118770801735 336.1840174359572 57.90698679237828Q334.68681574405883 55.6727858767392 332.3152735166775 55.6727858767392Q330.3218273279706 55.6727858767392 328.8812907346298 56.86893448601144Q327.44075414128895 58.06508309528368 326.6555809382934 60.33454816747648Q325.87040773529776 62.60401323966927 325.87040773529776 65.81408832606661Q325.87040773529776 71.42037319696634 328.35449734121187 74.33259856989383Q330.83858694712603 77.24482394282133 334.81682504019506 77.24482394282133Q337.55262897854846 77.24482394282133 339.53916156021296 75.75503150375278Q341.52569414187747 74.26523906468422 342.02808914714876 71.72817857411016Q342.14332344308224 71.51680010888214 342.2448043812489 71.43668377520906Q342.3462853194156 71.35656744153599 342.4498656924289 71.35656744153599Q342.60977253976876 71.35656744153599 342.69685033697874 71.48588461125667Q342.7839281341887 71.61520178097736 342.7674188008792 71.85280577292221Q342.55570756029897 74.27462995103325 341.1798714700476 76.21150268297973Q339.80403537979623 78.14837541492622 337.5763114667162 79.27365771851184Q335.34858755363626 80.39894002209746 332.5674540131025 80.39894002209746Q329.14601223837064 80.39894002209746 326.56204338911874 78.88811642654238Q323.97807453986684 77.37729283098732 322.5352327059346 74.60977082116091Q321.09239087200234 71.84224881133451 321.09239087200234 68.11067815857305Q321.09239087200234 64.24215470752065 322.5536863884929 61.23167664274291Q324.01498190498353 58.22119857796517 326.6818298400239 56.491218824144795Q329.3486777750643 54.761239070324415 332.9504419741445 54.761239070324415Q335.9792242077861 54.761239070324415 338.20872337562304 56.05986998624558Q340.43822254346 57.358500902166746 341.6641709787225 59.632033073399306Q342.89011941398496 61.905565244631866 342.89011941398496 64.84176057743412Z M394.07859791419753 69.50609636623966Q393.8610421464544 71.76736790444194 392.7535659756729 73.79084023481008Q391.6460898048914 75.8143125651782 389.77268404443737 77.36820494214683Q387.8992782839834 78.92209731911548 385.3478376522886 79.81104865955774Q382.79639702059376 80.7 379.69447505124356 80.7Q374.17366993917113 80.7 370.1437792791278 78.19906449264283Q366.1138886190845 75.69812898528565 363.92809720765433 71.25726738440187Q361.74230579622423 66.8164057835181 361.74230579622423 60.981898838017315Q361.74230579622423 56.4895529732924 363.05889852263124 52.74873901048275Q364.37549124903825 49.00792504767311 366.7780236217217 46.2671025353233Q369.18055599440515 43.526280022973495 372.470425149843 42.027593114200506Q375.76029430528075 40.52890620542752 379.69195578625784 40.52890620542752Q382.4792137944279 40.52890620542752 384.287217758532 41.14495236813973Q386.0952217226361 41.76099853085193 387.0651018525369 42.3825483644955Q388.03498198243767 43.00409819813907 388.3130496583241 43.00409819813907Q388.69535523568317 43.00409819813907 389.1306291682246 42.413944767725084Q389.565903100766 41.8237913373111 389.97721857335057 41.23525635700376Q390.38853404593516 40.646721376696426 390.6565561911671 40.646721376696426Q390.85013318686686 40.646721376696426 390.97880723270157 40.76698009837528Q391.1074812785363 40.88723882005413 391.1897019668059 41.2122465479191L394.09188425798555 51.177594812623724Q394.18414047913814 51.46537417691327 394.0831472040818 51.67772727664067Q393.9821539290254 51.890080376368054 393.70991544803474 51.94317093824452Q393.4551561338069 51.98849105847156 393.2455542276426 51.85771032640237Q393.03595232147825 51.72692959433317 392.9009633740976 51.426197136423035Q391.45876697518776 47.91632397761964 389.6088366939225 45.76838559838707Q387.75890641265727 43.62044721915449 385.5250483302114 42.630973490986946Q383.29119024776554 41.6414997628194 380.6583640463774 41.6414997628194Q377.9076944595278 41.6414997628194 375.58984280526124 42.817263894864794Q373.2719911509946 43.993028026910196 371.5551283094254 46.23692369690141Q369.83826546785616 48.48081936689262 368.8942908144088 51.6931450798806Q367.9503161609615 54.905470792868584 367.9503161609615 58.99121925284149Q367.9503161609615 65.1248789939977 369.7814510930117 69.36067157799992Q371.6125860250619 73.59646416200215 374.83751283163235 75.78711058814233Q378.0624396382028 77.97775701428252 382.2430035372674 77.97775701428252Q386.5537112495054 77.97775701428252 389.39293413107885 75.67523832283818Q392.23215701265224 73.37271963139385 393.3256713116713 69.46788971315377Q393.432168257659 69.23320344021832 393.542548665851 69.14353637168513Q393.652929074043 69.05386930315194 393.8073349176993 69.08170828108965Q393.9565645899151 69.09465588194284 394.02146647288106 69.2098990896823Q394.086368355847 69.32514229742175 394.07859791419753 69.50609636623966Z M408.80907032801537 54.789402880505165Q412.45162241019324 54.789402880505165 415.26835246788715 56.427288295844946Q418.0850825255811 58.06517371118473 419.6967477486997 60.969632830923445Q421.3084129718183 63.87409195066216 421.3084129718183 67.67073682114676Q421.3084129718183 71.40522756412348 419.6684199220487 74.27585461326235Q418.0284268722791 77.14648166240123 415.158116830978 78.77271084224935Q412.2878067896768 80.39894002209746 408.558171140546 80.39894002209746Q404.9156190583681 80.39894002209746 402.1129709057646 78.78306986350066Q399.3103227531611 77.16719970490385 397.71953905556575 74.29333575555168Q396.12875535797036 71.41947180619951 396.12875535797036 67.6496964758787Q396.12875535797036 63.88898569895255 397.7357281803402 60.99520916796939Q399.34270100270993 58.10143263698623 402.19941454952897 56.4454177587457Q405.056128096348 54.789402880505165 408.80907032801537 54.789402880505165ZM410.26613443295406 79.39643897024862Q412.3877738615289 79.17890533184683 413.79270354425864 77.64526406110281Q415.19763322698844 76.1116227903588 415.7451960352093 73.37192895027346Q416.29275884343014 70.6322351101881 415.82724373656833 66.81451207528036Q415.3633475736948 62.95373582863388 414.1651068600996 60.41798126626649Q412.96686614650446 57.88222670389909 411.181729589973 56.714541346942454Q409.39659303344155 55.546855989985815 407.1710362680405 55.78025182668866Q404.9755859430166 56.0055559067399 403.5764834987224 57.56833336966197Q402.1773810544282 59.13111083258404 401.6741705685771 61.86724301934891Q401.170960082726 64.60337520611378 401.6254678477251 68.37771723374993Q402.0893640105986 72.14202076521336 403.3086469072182 74.68522101612301Q404.5279298038377 77.22842126703266 406.3172751486982 78.4236243660607Q408.1066204935586 79.61882746508874 410.26613443295406 79.39643897024862Z M441.9471104426241 76.10317636642124 441.8985569394246 75.96494996487621V42.72592603379269Q441.8985569394246 42.44268570370669 441.78849581063884 42.299930740544866Q441.67843468185305 42.15717577738304 441.4078136031363 42.140991276316555L439.34571304855405 42.11833297482348Q439.1388677290828 42.0956746733304 439.04208021899615 41.99969515359302Q438.94529270890956 41.90371563385563 438.94529270890956 41.767112247490836Q438.94529270890956 41.594252306530414 439.0548671623483 41.49746606118259Q439.164441615787 41.40067981583477 439.4149832108135 41.3165188685747L445.41514693147053 39.53856679091637Q445.823988798826 39.39807936932979 446.0449128021887 39.3490396846649Q446.2658368055514 39.300000000000004 446.4552049337864 39.300000000000004Q446.7533350992425 39.300000000000004 446.9032096539647 39.47431548106392Q447.053084208687 39.64863096212783 447.053084208687 39.92927899753141V77.70466432923489Q447.053084208687 78.15559996832673 447.24828303396407 78.40518591756725Q447.44348185924116 78.65477186680779 447.8445665244192 78.74346987274488L449.43470464778676 79.01086618281813Q449.69464167516946 79.06071533947717 449.80275734823937 79.16802351607946Q449.91087302130927 79.27533169268175 449.91087302130927 79.44203816045449Q449.91087302130927 79.60939160496397 449.7817170029713 79.71605146095484Q449.65256098463334 79.82271131694571 449.38615620354255 79.82271131694571H443.3005254887149Q442.6718897924077 79.82271131694571 442.3095001175159 79.45675941571594Q441.9471104426241 79.09080751448617 441.9471104426241 78.36020260431644ZM423.5191848212511 68.20553951820068Q423.5191848212511 64.03887724636013 425.1146585483894 61.029367512889245Q426.7101322755277 58.01985777941836 429.3649952108467 56.402202901742605Q432.01985814616575 54.78454802406685 435.2108127931959 54.78454802406685Q438.1521518127792 54.78454802406685 440.251787403958 56.10256066529Q442.3514229951369 57.420573306513155 443.63723444347863 59.68238303013305L442.93574160155265 60.236551684974465Q441.8710485620378 58.26803888676572 440.14613172290257 57.13794559118024Q438.42121488376733 56.007852295594766 436.20115264151923 56.007852295594766Q434.15330304695124 56.007852295594766 432.47481871984496 57.25224447427844Q430.79633439273874 58.49663665296211 429.8028397220399 61.073495414543544Q428.80934505134104 63.65035417612497 428.80934505134104 67.6584365135738Q428.80934505134104 71.29583522774251 429.7021579019844 73.7401240727396Q430.5949707526277 76.1844129177367 432.1612793216045 77.41585761427098Q433.7275878905814 78.64730231080527 435.7417635821409 78.64730231080527Q437.4448264551212 78.64730231080527 439.2027733025217 77.69072476558708Q440.9607201499222 76.7341472203689 442.5424112954012 74.62868636628097L442.9820150359277 75.24404026480742Q440.8237477107645 77.96070688694188 438.6446364594568 79.17982345451966Q436.4655252081492 80.39894002209746 433.89680556583227 80.39894002209746Q430.91854036975695 80.39894002209746 428.5708940466576 78.88650546523118Q426.22324772355825 77.37407090836491 424.8712162724047 74.62775648147573Q423.5191848212511 71.88144205458653 423.5191848212511 68.20553951820068Z M472.96144295329987 64.84176057743412Q472.96144295329987 65.36647541967433 472.64179041000295 65.65570287483985Q472.322137866706 65.94493033000538 471.7067853516221 65.94493033000538H454.55616749103604V65.13922689217199H467.0433042769514Q467.7525426671704 65.13922689217199 467.7525426671704 64.44745628750158Q467.7525426671704 60.14118770801735 466.2553409752721 57.90698679237828Q464.75813928337374 55.6727858767392 462.3865970559924 55.6727858767392Q460.3931508672855 55.6727858767392 458.9526142739447 56.86893448601144Q457.51207768060385 58.06508309528368 456.7269044776083 60.33454816747648Q455.94173127461266 62.60401323966927 455.94173127461266 65.81408832606661Q455.94173127461266 71.42037319696634 458.42582088052677 74.33259856989383Q460.90991048644094 77.24482394282133 464.88814857950996 77.24482394282133Q467.62395251786336 77.24482394282133 469.61048509952786 75.75503150375278Q471.59701768119237 74.26523906468422 472.09941268646367 71.72817857411016Q472.21464698239714 71.51680010888214 472.3161279205638 71.43668377520906Q472.4176088587305 71.35656744153599 472.5211892317438 71.35656744153599Q472.68109607908366 71.35656744153599 472.76817387629364 71.48588461125667Q472.85525167350363 71.61520178097736 472.83874234019413 71.85280577292221Q472.6270310996139 74.27462995103325 471.2511950093625 76.21150268297973Q469.87535891911114 78.14837541492622 467.6476350060311 79.27365771851184Q465.41991109295117 80.39894002209746 462.6387775524174 80.39894002209746Q459.21733577768555 80.39894002209746 456.63336692843365 78.88811642654238Q454.04939807918174 77.37729283098732 452.6065562452495 74.60977082116091Q451.16371441131724 71.84224881133451 451.16371441131724 68.11067815857305Q451.16371441131724 64.24215470752065 452.6250099278078 61.23167664274291Q454.08630544429843 58.22119857796517 456.7531533793388 56.491218824144795Q459.4200013143792 54.761239070324415 463.0217655134594 54.761239070324415Q466.050547747101 54.761239070324415 468.28004691493794 56.05986998624558Q470.5095460827749 57.358500902166746 471.7354945180374 59.632033073399306Q472.96144295329987 61.905565244631866 472.96144295329987 64.84176057743412Z" fill="#16130F"/>
</svg>
