<svg xmlns="http://www.w3.org/2000/svg" viewBox="0 0 806.8 132" width="806.8" height="132" fill="none"><path d="M 82.00 5.38 L 57.00 5.38 L 22.00 66.00 L 57.00 126.62 L 82.00 126.62" stroke="#16130F" stroke-width="24" fill="none" stroke-linejoin="miter" stroke-linecap="butt"/><path d="M 102.00 5.38 L 127.00 5.38 L 162.00 66.00 L 127.00 126.62 L 102.00 126.62" stroke="#E0381F" stroke-width="24" fill="none" stroke-linejoin="miter" stroke-linecap="butt"/><path d="M244.97681601169202 65.57091467640642H261.07916686883914Q264.64774513946446 65.57091467640642 266.2230859404178 64.00028263444291Q267.7984267413711 62.429650592479405 268.1352565629433 58.18977742670298Q268.2222477281527 57.70781172191529 268.4106227155116 57.4935788512779Q268.59899770287046 57.27934598064051 268.8975698019121 57.25290073152209Q269.60934179307594 57.15768758885414 269.85914076895136 58.16570036890134L274.3805641142161 73.6572930025024Q274.53044585311335 74.1410189394591 274.40584126814883 74.42784547537794Q274.2812366831844 74.71467201129677 273.93799398248035 74.81929334258513Q273.63060500689306 74.9009906075379 273.33937412262514 74.79549400315295Q273.0481432383573 74.68999739876801 272.7771768413029 74.34909834983809Q271.03017655286357 71.54114053643839 269.59061310034645 70.03164651292988Q268.1510496478294 68.52215248942136 266.4954774858749 67.93933844990984Q264.83990532392045 67.35652441039832 262.4516407922614 67.35652441039832H244.97681601169202ZM230.0 32.78301219754424Q230.0 32.439767703333985 230.2503831485446 32.242281833209304Q230.50076629708923 32.044795963084624 231.02210231694136 32.044795963084624H270.97435604544114Q272.17227296823137 32.044795963084624 273.0857122090872 31.628648440894658Q273.99915144994304 31.21250091870469 274.6707017831134 30.800760938034458Q275.3422521162837 30.389020957364224 275.8001044568671 30.389020957364224Q276.23738427535864 30.389020957364224 276.4854130803306 30.678200437191265Q276.73344188530257 30.967379917018306 276.9656124886052 31.861392522462225L281.04848886266313 47.48997921569006Q281.21012524128383 47.98017837741835 281.0678895934873 48.26406306023564Q280.9256539456908 48.547947743052944 280.5706566052633 48.65844639420303Q280.2074339877428 48.75777561874097 279.88652569111684 48.609958450809046Q279.5656173944909 48.46214128287711 279.3028826608709 47.99957846164217Q276.9392430134492 43.6168729528701 275.00002007941055 40.852107854787775Q273.06079714537196 38.08734275670545 271.2888297096927 36.54815704202792Q269.5168622740135 35.00897132735038 267.67644236922126 34.42850449200604Q265.83602246442905 33.8480376566617 263.6429502334228 33.8480376566617H247.83641115683486V97.41444569616684Q247.83641115683486 98.80630341335655 248.67780667955995 99.49782473043166Q249.51920220228504 100.18934604750677 251.21197158297244 100.18934604750677H264.40645758123463Q267.432431378879 100.18934604750677 269.8327484680971 98.88469464368313Q272.23306555731523 97.58004323985948 274.8250519735029 93.76045158119155Q277.41703838969056 89.94085992252363 280.9022232395352 82.38692612249636Q281.1385109305305 81.96256319010328 281.4109344769331 81.7785924074045Q281.68335802333576 81.59462162470572 282.0389487567221 81.65810351046827Q282.4474317818515 81.7133537327964 282.60847336784883 82.05543153148545Q282.76951495384617 82.3975093301745 282.6078785752255 82.97704610821523L277.9330530267255 102.03670262384094Q277.7067597432846 102.89779926734586 277.4425696538226 103.23341313339742Q277.17837956436057 103.569026999449 276.70877538338266 103.569026999449Q276.1650945550317 103.569026999449 275.46327201688007 103.1749171848577Q274.76144947872837 102.78080737026642 273.7242767642364 102.38669755567513Q272.68710404974445 101.99258774108384 271.0924059317615 101.99258774108384H231.02210231694136Q230.50076629708923 101.99258774108384 230.2503831485446 101.77717500840079Q230.0 101.56176227571774 230.0 101.25437150662424Q230.0 100.62136181656429 230.91396970698523 100.42622813728367L235.1649139230639 99.76730875737542Q236.1623975984203 99.58333173202426 236.65026207851133 99.18188278354339Q237.13812655860232 98.78043383506252 237.13812655860232 98.04277059462957V35.99461310953889Q237.13812655860232 35.25694986910595 236.65026207851133 34.8449202595173Q236.1623975984203 34.43289064992865 235.1649139230639 34.270074946793045L230.91396970698523 33.611155566884804Q230.0 33.41602188760419 230.0 32.78301219754424Z M302.08868557815 98.11270209699349Q302.08868557815 98.85153188925868 302.46956085763316 99.30000169305087Q302.8504361371163 99.74847149684307 303.64922333272665 99.86838321682662L309.2979658000641 100.4985141269092Q309.79697215236223 100.53907015282995 310.0291372314573 100.7430199555921Q310.2613023105523 100.94696975835424 310.2613023105523 101.29551274565627Q310.2613023105523 101.99258774108384 309.3261929523266 101.99258774108384H287.78908756613316Q287.42586674211884 101.99258774108384 287.1869465234951 101.80891595128206Q286.9480263048714 101.62524416148028 286.9480263048714 101.34136267183365Q286.9480263048714 101.01809809443988 287.1716658580009 100.82737181299004Q287.39530541113044 100.63664553154021 287.83729671609626 100.55201050340968L291.31945224386146 99.9424511095962Q292.11940807218826 99.7549529014622 292.49499034816785 99.35115405855484Q292.8705726241474 98.94735521564748 292.8705726241474 98.31668429714858V61.85363778612739Q292.8705726241474 61.294092404385225 292.60725701749277 60.90322716649385Q292.34394141083806 60.512361928602466 291.66038609306577 60.34779596665161L286.60050959324275 59.362619712117606Q286.01042921356105 59.1757194897776 285.79031991981503 58.972947755554884Q285.57021062606907 58.770176021332176 285.57021062606907 58.479235806424754Q285.57021062606907 58.191824954147734 285.7956156135779 58.01343992519709Q286.0210206010868 57.835054896246454 286.4130446048046 57.835054896246454H294.0455108028589L292.9669725527331 58.62087045877646V57.5117624796755Q292.9669725527331 55.84067685117445 292.28454242186905 54.228064281487704Q291.60211229100497 52.61545171180096 290.69308848413857 50.8882123894756Q289.7840646772721 49.16097306715024 289.10163454640804 47.12895953750638Q288.41920441554396 45.09694600786253 288.41920441554396 42.60821978166281Q288.41920441554396 36.93299331609198 292.010942850586 33.54845098217374Q295.602681285628 30.1639086482555 301.54061815820387 30.1639086482555Q305.30781699092387 30.1639086482555 307.8761904054555 31.41915051860702Q310.4445638199871 32.67439238895854 311.7447617591512 34.75549184779037Q313.0449596983153 36.836591306622196 313.0449596983153 39.2924143435656Q313.0449596983153 41.756505925101884 311.8446523038581 43.00206479425628Q310.64434490940084 44.24762366341067 308.7492485159097 44.24762366341067Q306.79890010658426 44.24762366341067 305.5192330718294 42.940628751501876Q304.23956603707455 41.63363383959309 304.23956603707455 39.33001072240587V35.93295080097394Q304.23956603707455 33.81927724415243 303.17951069301546 32.72071551972664Q302.1194553489564 31.622153795300846 299.9711139215634 31.622153795300846Q296.96575225204805 31.630968878340312 295.2179563016398 33.597131505996224Q293.47016035123147 35.563294133652136 293.47016035123147 39.0630082897524Q293.47016035123147 41.421876679816 294.3104432441976 43.51564598210806Q295.1507261371637 45.60941528440012 296.4065935104891 47.477759471561704Q297.6624608838145 49.34610365872329 298.91832825713993 51.07160276743164Q300.17419563046536 52.79710187614 301.0144785234315 54.464394486918735Q301.8547614163976 56.131687097697466 301.8547614163976 57.789850672509075V58.96301907676461L301.0935912647798 57.835054896246454H310.7943951999125Q311.276359111194 57.835054896246454 311.5120489600843 57.991983843697284Q311.74773880897465 58.148912791148106 311.74773880897465 58.48804909595802Q311.74773880897465 58.990002897409745 311.2357927526971 59.31209744242267Q310.72384669641957 59.6341919874356 309.70937016464893 59.6341919874356H302.08868557815Z M329.268398954744 98.11270209699349Q329.268398954744 98.85153188925868 329.64927423422716 99.30000169305087Q330.0301495137103 99.74847149684307 330.82893670932066 99.86838321682662L336.4776791766581 100.4985141269092Q336.97668552895624 100.53907015282995 337.2088506080513 100.7430199555921Q337.4410156871463 100.94696975835424 337.4410156871463 101.29551274565627Q337.4410156871463 101.99258774108384 336.5059063289206 101.99258774108384H314.96880094272717Q314.60558011871285 101.99258774108384 314.36665990008913 101.80891595128206Q314.1277396814654 101.62524416148028 314.1277396814654 101.34136267183365Q314.1277396814654 101.01809809443988 314.3513792345949 100.82737181299004Q314.57501878772445 100.63664553154021 315.01701009269027 100.55201050340968L318.49916562045547 99.9424511095962Q319.2991214487823 99.7549529014622 319.67470372476186 99.35115405855484Q320.05028600074144 98.94735521564748 320.05028600074144 98.31668429714858V61.85363778612739Q320.05028600074144 61.294092404385225 319.7869703940868 60.90322716649385Q319.52365478743206 60.512361928602466 318.8400994696598 60.34779596665161L313.78022296983676 59.362619712117606Q313.19014259015506 59.1757194897776 312.97003329640904 58.972947755554884Q312.7499240026631 58.770176021332176 312.7499240026631 58.479235806424754Q312.7499240026631 58.191824954147734 312.97532899017193 58.01343992519709Q313.2007339776808 57.835054896246454 313.5927579813986 57.835054896246454H321.22522417945294L320.14668592932713 58.62087045877646V57.5117624796755Q320.14668592932713 55.84067685117445 319.46425579846306 54.228064281487704Q318.781825667599 52.61545171180096 317.8728018607326 50.8882123894756Q316.9637780538661 49.16097306715024 316.28134792300204 47.12895953750638Q315.59891779213797 45.09694600786253 315.59891779213797 42.60821978166281Q315.59891779213797 36.93299331609198 319.19065622718 33.54845098217374Q322.78239466222203 30.1639086482555 328.7203315347979 30.1639086482555Q332.4875303675179 30.1639086482555 335.0559037820495 31.41915051860702Q337.6242771965811 32.67439238895854 338.9244751357452 34.75549184779037Q340.22467307490933 36.836591306622196 340.22467307490933 39.2924143435656Q340.22467307490933 41.756505925101884 339.0243656804521 43.00206479425628Q337.82405828599485 44.24762366341067 335.9289618925037 44.24762366341067Q333.97861348317826 44.24762366341067 332.6989464484234 42.940628751501876Q331.41927941366856 41.63363383959309 331.41927941366856 39.33001072240587V35.93295080097394Q331.41927941366856 33.81927724415243 330.35922406960947 32.72071551972664Q329.29916872555043 31.622153795300846 327.1508272981574 31.622153795300846Q324.14546562864206 31.630968878340312 322.3976696782338 33.597131505996224Q320.6498737278255 35.563294133652136 320.6498737278255 39.0630082897524Q320.6498737278255 41.421876679816 321.4901566207916 43.51564598210806Q322.3304395137577 45.60941528440012 323.5863068870831 47.477759471561704Q324.8421742604085 49.34610365872329 326.09804163373394 51.07160276743164Q327.35390900705937 52.79710187614 328.1941919000255 54.464394486918735Q329.0344747929916 56.131687097697466 329.0344747929916 57.789850672509075V58.96301907676461L328.2733046413738 57.835054896246454H337.9741085765065Q338.456072487788 57.835054896246454 338.6917623366783 57.991983843697284Q338.92745218556865 58.148912791148106 338.92745218556865 58.48804909595802Q338.92745218556865 58.990002897409745 338.4155061292911 59.31209744242267Q337.9035600730136 59.6341919874356 336.88908354124294 59.6341919874356H329.268398954744Z M380.11027280745725 74.79130456062501Q380.11027280745725 75.74404229142348 379.5298717701158 76.26919974293095Q378.94947073277433 76.79435719443842 377.83215993523885 76.79435719443842H346.69135844289997V75.33142151344907H369.36456188191494Q370.65234358751246 75.33142151344907 370.65234358751246 74.07535649856803Q370.65234358751246 66.25635801720185 367.9338374053797 62.19966409669836Q365.2153312232469 58.14297017619488 360.90926328249355 58.14297017619488Q357.2897136806777 58.14297017619488 354.67409572100246 60.314846822241904Q352.05847776132714 62.48672346828893 350.63281933605367 66.60744739097431Q349.20716091078026 70.7281713136597 349.20716091078026 76.5567841282878Q349.20716091078026 86.73625437789342 353.7175839133665 92.02405409312702Q358.2280069159528 97.31185380836062 365.4513923212229 97.31185380836062Q370.4188592695718 97.31185380836062 374.02585566390246 94.60680079004122Q377.6328520582331 91.90174777172182 378.5450631084163 87.29514422231927Q378.7542968727007 86.91133910935314 378.9385583247599 86.76586989865254Q379.1228197768192 86.62040068795194 379.3108932247107 86.62040068795194Q379.60124004665926 86.62040068795194 379.7593493590671 86.85520507485846Q379.91745867147495 87.09000946176498 379.88748226621993 87.52143291292506Q379.5030729248074 91.91879903658057 377.0049332705519 95.43562681221898Q374.5067936162963 98.9524545878574 370.4618601497075 100.99565752804607Q366.41692668311873 103.03886046823473 361.3671536537471 103.03886046823473Q355.15475710975 103.03886046823473 350.46298089206266 100.29562065835918Q345.7712046743754 97.55238084848365 343.15140103228134 92.52732261243376Q340.53159739018736 87.50226437638388 340.53159739018736 80.72675914987359Q340.53159739018736 73.70258533660646 343.18490784060884 68.23638577608052Q345.83821829103033 62.77018621555458 350.68048011683885 59.62901914289236Q355.5227419426474 56.48785207023014 362.0625543772495 56.48785207023014Q367.5619892703858 56.48785207023014 371.6101461109914 58.84580837788314Q375.6583029515971 61.203764685536136 377.88428787952716 65.33187334064786Q380.11027280745725 69.45998199575959 380.11027280745725 74.79130456062501Z M422.1347391800627 68.1315047013157Q422.1347391800627 70.3064035274309 420.8303951298977 71.6901005813994Q419.52605107973267 73.0737976353679 417.3429236768899 73.0737976353679Q415.14215792812064 73.0737976353679 413.86190517734315 71.7194791445494Q412.58165242656565 70.3651606537309 412.58165242656565 67.95335118021683V65.42157889598843Q412.58165242656565 62.12288937384694 410.45506973242635 60.13645809720924Q408.32848703828705 58.15002682057154 404.6102047608377 58.15002682057154Q400.9536134984757 58.15002682057154 398.19368803694414 60.417138027503Q395.4337625754126 62.68424923443445 393.9034788007715 66.77675303779901Q392.37319502613036 70.86925684116358 392.37319502613036 76.35924975122785Q392.37319502613036 82.98018148614652 394.43222226446704 87.54823359417628Q396.4912495028037 92.11628570220603 400.0532545597555 94.46364498905614Q403.6152596167072 96.81100427590624 408.1106737515136 96.81100427590624Q412.77539697907395 96.81100427590624 416.17106995847575 94.55624989087983Q419.5667429378776 92.30149550585342 420.9527562675235 87.90182914161261Q421.176099015104 87.53918535086203 421.3603604671632 87.39724230962115Q421.5446219192225 87.25529926838027 421.76972841674575 87.26940825167638Q422.0600752386943 87.28351723497249 422.17850670407074 87.52802306365538Q422.2969381694472 87.77252889233827 422.25285278089603 88.11754431051611Q421.4293237404702 92.69124904535829 418.9291248611486 96.02730698827561Q416.42892598182704 99.36336493119293 412.624708915817 101.16937071639049Q408.820491849807 102.97537650158806 404.0052608454506 102.97537650158806Q398.1244103398118 102.97537650158806 393.49906966507365 100.34148238862167Q388.8737289903355 97.70758827565527 386.20808299253645 92.69311715889899Q383.54243699473744 87.6786460421427 383.54243699473744 80.54338111613912Q383.54243699473744 73.78490003375518 386.3185978250733 68.34808700069335Q389.09475865540924 62.91127396763154 394.0689765416877 59.69956301893084Q399.04319442796606 56.48785207023014 405.63119462893417 56.48785207023014Q410.8396711539617 56.48785207023014 414.5201525217625 58.05520534459457Q418.2006338895633 59.62255861895899 420.167686534813 62.2673455524546Q422.1347391800627 64.91213248595021 422.1347391800627 68.1315047013157Z M428.67405637987656 59.81057566483984 424.6170217449354 59.032321167144914Q424.07865153315294 58.877155501344824 423.8720583672749 58.68554874458808Q423.66546520139684 58.49394198783134 423.66546520139684 58.208879092785644Q423.66546520139684 57.89208164120002 423.8955703369811 57.71369661224938Q424.1256754725653 57.53531158329874 424.46832657381674 57.53531158329874H428.6446707811792Q429.33468533228995 57.53531158329874 429.7428786938816 57.32225165083494Q430.1510720554732 57.10919171837115 430.444957926028 56.56669946944418L436.6566292733444 48.01412068426944Q437.03222058869954 47.52217485073833 437.39017621376814 47.278254235166735Q437.74813183883674 47.03433361959514 438.1372308520595 47.03433361959514Q438.55101846924407 47.03433361959514 438.7837759008559 47.29324638402907Q439.01653333246776 47.552159148463 439.01653333246776 48.04059987152848V91.24935120118761Q439.01653333246776 94.97602177792534 440.4913190518532 96.83053290665407Q441.9661047712387 98.6850440353828 444.55065073681476 98.6850440353828Q445.78968134683777 98.6850440353828 446.7151582916858 98.3123937828399Q447.6406352365338 97.93974353029702 448.3471745698339 97.28964429194961Q449.053713903134 96.6395450536022 449.6262323894655 95.81190054068159Q450.198750875797 94.98425602776096 450.71717216588576 94.07426750700552Q450.97577983845923 93.89791167398998 451.2041370116458 94.04102334794723Q451.43249418483236 94.1841350219045 451.36195357380905 94.6731630389654Q450.79057634670295 97.23076665267845 449.4180623887824 99.05532677522282Q448.04554843086186 100.87988689776718 445.90008650449676 101.85181430115692Q443.75462457813165 102.82374170454666 440.87909584859307 102.82374170454666Q435.72404696165097 102.82374170454666 432.7894516366503 100.27885884150476Q429.85485631164966 97.73397597846287 429.85485631164966 92.49666398540839V61.34580408362423Q429.85485631164966 60.68515855337653 429.6027110283602 60.32133411029103Q429.35056574507075 59.95750966720554 428.67405637987656 59.81057566483984ZM435.56087328241796 59.33444867448789 435.7301810819713 57.53531158329874H450.33576064591284Q450.81772025173706 57.53531158329874 451.0463556089793 57.702821191857346Q451.2749909662216 57.87033080041595 451.2749909662216 58.23062842744142Q451.2749909662216 58.70436426230092 450.7630470626726 59.01940646839441Q450.2511031591237 59.33444867448789 449.20841296621813 59.33444867448789Z M468.58443992111614 57.94254553967551V98.14679738344742Q468.58443992111614 98.96557238834393 468.9388672612215 99.41875177603457Q469.2932946013269 99.87193116372521 470.02155395859666 100.03298232923457L472.90880712041945 100.51850043006704Q473.38078121698163 100.60901277805928 473.57708952147823 100.80385489122631Q473.7733978259748 100.99869700439335 473.7733978259748 101.30139006551799Q473.7733978259748 101.60525785832245 473.53888604562394 101.79892279970315Q473.30437426527305 101.99258774108384 472.8206565081639 101.99258774108384H454.8267922816535Q454.40832123531106 101.99258774108384 454.17116250483184 101.79892279970315Q453.9340037743527 101.60525785832245 453.9340037743527 101.30139006551799Q453.9340037743527 101.04983473186392 454.1259045373296 100.86557327980466Q454.3178053003064 100.68131182774542 454.738641669398 100.56963815753761L457.788123096672 100.03298232923457Q458.53049143723786 99.86311608068574 458.8778642856952 99.41875177603458Q459.2252371341525 98.97438747138341 459.2252371341525 98.197935110918V63.02048680734794Q459.2252371341525 62.50620032708633 459.0253964175438 62.246996605914006Q458.8255557009351 61.98779288474169 458.33418230783263 61.958406285433085L454.58997527404046 61.91726504640105Q454.2144011060639 61.87612380736901 454.03866162757714 61.70185141696489Q453.86292214909037 61.52757902656077 453.86292214909037 61.27954487568955Q453.86292214909037 60.96567880094034 454.0618791972215 60.789941618871126Q454.2608362453526 60.614204436801906 454.71575082275825 60.46139132106828L465.610396652161 57.23311971223673Q466.3703729130749 56.97215590258433 466.76857143604525 56.88605199286492Q467.1667699590156 56.799948083145516 467.47534643896535 56.799948083145516Q468.0343007215605 56.799948083145516 468.3093703213383 57.11645701809927Q468.58443992111614 57.43296595305302 468.58443992111614 57.94254553967551ZM463.3893867142908 48.39002685191111Q460.7031088199636 48.39002685191111 459.03021179932404 46.675384973168335Q457.3573147786845 44.96074309442557 457.3573147786845 42.41788383126669Q457.3573147786845 39.850925482714516 459.0513731215396 38.1465684653532Q460.7454314643947 36.44221144799188 463.3893867142908 36.44221144799188Q466.0985886749537 36.44221144799188 467.8076373731649 38.16155666798071Q469.5166860713761 39.88090188796954 469.5166860713761 42.41788383126669Q469.5166860713761 44.96074309442557 467.79705671205716 46.675384973168335Q466.07742735273814 48.39002685191111 463.3893867142908 48.39002685191111Z M498.9816164682835 102.27469601295107H495.49169215431Q494.89217725295896 102.27469601295107 494.45076474014377 101.96494756342526Q494.0093522273285 101.65519911389946 493.7601430573996 101.0198286939255L478.9212278392399 62.35623800846391Q478.4222148132225 61.06020842342581 477.8729290720995 60.34134143521783Q477.32364333097644 59.62247444700985 476.4548909077892 59.46259442616787L474.44110366206183 59.05465930192441Q473.9091785484958 58.907715326204936 473.68964754398905 58.724336142958805Q473.47011653948226 58.54095695971267 473.47011653948226 58.23532434190406Q473.47011653948226 57.88737116054847 473.72049879127377 57.71134137192361Q473.9708810430653 57.53531158329874 474.3540881702374 57.53531158329874H494.3130084191579Q495.2422404575219 57.53531158329874 495.2422404575219 58.22650925886459Q495.2422404575219 58.5321418766732 495.05033879779194 58.70934794033129Q494.858437138062 58.88655400398938 494.34238583279625 59.00058201776986L491.9988316525257 59.439085146720984Q489.4166483540588 59.938126299293465 488.9176068422639 60.840080976478475Q488.41856533046905 61.742035653663486 489.1597454482276 63.7146038055123L501.3099704511097 96.13549097373468L499.50068317343437 98.57803492268675L512.1728901859865 64.3636170371333Q513.0016619666994 62.1171008827967 512.4179665551279 60.99645911725061Q511.83427114355635 59.87581735170453 509.35496960936115 59.439085146720984L506.79980220693506 59.00058201776986Q506.3107895437466 58.88655400398938 506.105368562978 58.713755481851024Q505.8999475822094 58.54095695971267 505.8999475822094 58.22650925886459Q505.8999475822094 57.878556077508996 506.1503298340009 57.70693383040387Q506.4007120857924 57.53531158329874 506.8291796205734 57.53531158329874H520.1520992457587Q520.5705766784424 57.53531158329874 520.8033237774781 57.71134137192361Q521.0360708765138 57.88737116054847 521.0360708765138 58.23532434190406Q521.0360708765138 58.523325000127514 520.8271205331148 58.71258150323537Q520.6181701897158 58.90183800634322 520.0298198347639 59.04290466220097L518.2023889285699 59.39088087697094Q517.0473400391458 59.64716943731302 516.2352873106987 60.66935610190609Q515.4232345822517 61.691542766499154 514.6491156128287 63.81642384984168L500.6191192617361 101.11857270535214Q500.3752039920638 101.76745620371236 499.95054346643815 102.02107610833171Q499.52588294081255 102.27469601295107 498.9816164682835 102.27469601295107Z M560.625538303108 74.79130456062501Q560.625538303108 75.74404229142348 560.0451372657665 76.26919974293095Q559.4647362284251 76.79435719443842 558.3474254308896 76.79435719443842H527.2066239385508V75.33142151344907H549.8798273775657Q551.1676090831633 75.33142151344907 551.1676090831633 74.07535649856803Q551.1676090831633 66.25635801720185 548.4491029010305 62.19966409669836Q545.7305967188977 58.14297017619488 541.4245287781443 58.14297017619488Q537.8049791763285 58.14297017619488 535.1893612166532 60.314846822241904Q532.573743256978 62.48672346828893 531.1480848317045 66.60744739097431Q529.722426406431 70.7281713136597 529.722426406431 76.5567841282878Q529.722426406431 86.73625437789342 534.2328494090173 92.02405409312702Q538.7432724116036 97.31185380836062 545.9666578168737 97.31185380836062Q550.9341247652226 97.31185380836062 554.5411211595533 94.60680079004122Q558.1481175538839 91.90174777172182 559.0603286040671 87.29514422231927Q559.2695623683514 86.91133910935314 559.4538238204107 86.76586989865254Q559.63808527247 86.62040068795194 559.8261587203615 86.62040068795194Q560.11650554231 86.62040068795194 560.2746148547179 86.85520507485846Q560.4327241671258 87.09000946176498 560.4027477618707 87.52143291292506Q560.0183384204582 91.91879903658057 557.5201987662026 95.43562681221898Q555.0220591119471 98.9524545878574 550.9771256453583 100.99565752804607Q546.9321921787696 103.03886046823473 541.882419149398 103.03886046823473Q535.6700226054008 103.03886046823473 530.9782463877135 100.29562065835918Q526.2864701700262 97.55238084848365 523.6666665279322 92.52732261243376Q521.0468628858381 87.50226437638388 521.0468628858381 80.72675914987359Q521.0468628858381 73.70258533660646 523.7001733362597 68.23638577608052Q526.3534837866812 62.77018621555458 531.1957456124896 59.62901914289236Q536.0380074382982 56.48785207023014 542.5778198729002 56.48785207023014Q548.0772547660366 56.48785207023014 552.1254116066423 58.84580837788314Q556.1735684472479 61.203764685536136 558.3995533751779 65.33187334064786Q560.625538303108 69.45998199575959 560.625538303108 74.79130456062501Z M653.5697261234938 83.26045453956584Q653.1747047294033 87.36630125971583 651.1638328254203 91.04037007038204Q649.1529609214372 94.71443888104824 645.751371697356 97.53587974370328Q642.349782473275 100.3573206063583 637.7170685455926 101.97141156530147Q633.0843546179102 103.58550252424463 627.4521180957353 103.58550252424463Q617.4278555606792 103.58550252424463 610.1106833106555 99.04449200131003Q602.7935110606319 94.50348147837542 598.8247154755218 86.44009911558132Q594.8559198904117 78.37671675278722 594.8559198904117 67.78285803163539Q594.8559198904117 59.62599441625382 597.2464899020915 52.83370588282815Q599.6370599137714 46.04141734940248 603.9993974286542 41.06483805199039Q608.361734943537 36.088258754578305 614.3352318249931 33.36705582739282Q620.3087287064493 30.64585290020733 627.4475438039245 30.64585290020733Q632.508437180823 30.64585290020733 635.7912747439475 31.76442317091606Q639.0741123070721 32.88299344162479 640.8351476728017 34.01155686391244Q642.5961830385312 35.14012028620009 643.1010774024895 35.14012028620009Q643.7952391050434 35.14012028620009 644.5855767615783 34.06856409061958Q645.3759144181132 32.997007895039076 646.122750105702 31.928390359389432Q646.8695857932909 30.85977282373979 647.3562402385164 30.85977282373979Q647.7077227825024 30.85977282373979 647.9413594334457 31.078129562252975Q648.1749960843889 31.296486300766162 648.3242862238335 31.88661087932016L653.5938504668745 49.98094046183382Q653.7613623718507 50.503468578883584 653.5779863817752 50.88904335984179Q653.3946103916998 51.27461814080001 652.9003002412422 51.37101598850154Q652.4377274466535 51.45330485290696 652.0571480759663 51.215843039606995Q651.6765687052791 50.978381226307036 651.4314659312442 50.432333856456616Q648.8128342215011 44.05937025887287 645.4538700062271 40.15930536155075Q642.0949057909532 36.25924046422864 638.0388343611671 34.46262851699603Q633.9827629313809 32.666016569763414 629.2022752097301 32.666016569763414Q624.2078163353389 32.666016569763414 619.9992356975484 34.800880615797645Q615.790655059758 36.935744661831876 612.6733046894401 41.01004158785102Q609.5559543191221 45.08433851387017 607.8419561683991 50.91703784692358Q606.127958017676 56.74973717997699 606.127958017676 64.16833182035094Q606.127958017676 75.30536967948544 609.4527950520144 82.99640315089569Q612.7776320863528 90.68743662230594 618.6332115370224 94.66504757783343Q624.4887909876918 98.64265853336094 632.0795443684192 98.64265853336094Q639.9066030930377 98.64265853336094 645.0618503772052 94.46191833580534Q650.2170976613729 90.28117813824971 652.2026186491063 83.19108177357539Q652.3959877907606 82.76495609706228 652.5964082308924 82.60214538060356Q652.7968286710242 82.43933466414484 653.0771871843817 82.489882585669Q653.3481471950947 82.51339186511588 653.4659911509423 82.72264181078705Q653.5838351067898 82.93189175645823 653.5697261234938 83.26045453956584Z M680.3162096062409 56.53898979770072Q686.9300816100761 56.53898979770072 692.0444881170118 59.5129388997624Q697.1588946239476 62.48688800182408 700.0852350737912 67.7605863388533Q703.0115755236347 73.03428467588252 703.0115755236347 79.92794677072597Q703.0115755236347 86.70875407734046 700.0337995375546 91.92102268611214Q697.0560235514745 97.13329129488383 691.8443305416827 100.08607588155928Q686.632637531891 103.03886046823473 679.8606457393829 103.03886046823473Q673.2467737355477 103.03886046823473 668.1579360923472 100.10488501293077Q663.0690984491467 97.17090955762681 660.1806731022145 91.95276362899341Q657.2922477552823 86.73461770036 657.2922477552823 79.88974329487168Q657.2922477552823 73.06132762341701 660.2100680969041 67.80702592728815Q663.1278884385259 62.55272423115928 668.3148939566424 59.54585701443Q673.5018994747589 56.53898979770072 680.3162096062409 56.53898979770072ZM682.9618369779394 101.21859448684235Q686.8141502194001 100.82361327354481 689.3651158298651 98.03894284587162Q691.9160814403302 95.25427241819843 692.9103047886667 90.27974247896242Q693.9045281370034 85.30521253972643 693.0592808314948 78.37327829985243Q692.21697308267 71.363171277443 690.0412977510041 66.7589389342196Q687.8656224193383 62.15470659099619 684.6243057743318 60.03451137691806Q681.3829891293252 57.91431616283994 677.3419906064349 58.338098762334766Q673.3556570927615 58.747188958928405 670.8152721434042 61.58476269214049Q668.274887194047 64.42233642535257 667.361195455584 69.39039938246938Q666.447503717121 74.3584623395862 667.2727647194719 81.21162861045968Q668.1150724682965 88.04656773528295 670.3289546126763 92.664319399545Q672.5428367570561 97.28207106380704 675.7917954032396 99.45223092349319Q679.040754049423 101.62239078317934 682.9618369779394 101.21859448684235Z M740.4857695277939 95.23893603712473 740.397609729868 94.98795493740549V34.635036199957796Q740.397609729868 34.12074971969619 740.1977690132594 33.861545998523866Q739.9979282966507 33.60234227735154 739.5065549035481 33.572955678042945L735.762347869756 33.5318144390109Q735.3867737017795 33.49067319997886 735.2110342232927 33.316400809574745Q735.0352947448059 33.14212841917063 735.0352947448059 32.8940942682994Q735.0352947448059 32.580228193550184 735.234251792937 32.40449101148097Q735.4332088410681 32.22875382941176 735.8881234184738 32.07594071367812L746.7827692478766 28.847669104846574Q747.5251135492053 28.592582615055903 747.9262507321065 28.503540045405636Q748.3273879150076 28.41449747575537 748.6712283141278 28.41449747575537Q749.2125506371377 28.41449747575537 749.4846815769847 28.73100641070912Q749.7568125168317 29.047515345662873 749.7568125168317 29.557094932285352V98.14679738344742Q749.7568125168317 98.96557238834393 750.1112398569371 99.41875177603457Q750.4656671970424 99.87193116372521 751.1939265543123 100.03298232923457L754.081179716135 100.51850043006704Q754.5531538126971 100.60901277805928 754.7494621171937 100.80385489122631Q754.9457704216903 100.99869700439335 754.9457704216903 101.30139006551799Q754.9457704216903 101.60525785832245 754.7112586413394 101.79892279970315Q754.4767468609886 101.99258774108384 753.9930291038794 101.99258774108384H742.9431987370305Q741.8017693384611 101.99258774108384 741.1437694331275 101.32811981318898Q740.4857695277939 100.66365188529412 740.4857695277939 99.33707446039509ZM707.0257287085326 80.89900126928117Q707.0257287085326 73.33348941730353 709.9226698582294 67.86904807990695Q712.8196110079261 62.40460674251038 717.6401113729966 59.46739072858581Q722.460611738067 56.53017471466125 728.254507097521 56.53017471466125Q733.5951691818307 56.53017471466125 737.4075295109246 58.92332290082932Q741.2198898400187 61.31647108699739 743.5545695229824 65.4232950037354L742.2808516011976 66.42951275133922Q740.3476620879497 62.85523532399224 737.2156878748372 60.80329694651108Q734.0837136617247 58.751358569029925 730.0526916805653 58.751358569029925Q726.3343604677195 58.751358569029925 723.2866949163497 61.010832258549996Q720.2390293649797 63.27030594807006 718.435116492836 67.94917220353096Q716.6312036206922 72.62803845899187 716.6312036206922 79.90561279771472Q716.6312036206922 86.51012770366026 718.2523060193171 90.9482834791975Q719.8734084179418 95.38643925473475 722.7173936678464 97.62240388034138Q725.5613789177511 99.85836850594802 729.2185675911511 99.85836850594802Q732.3108610168201 99.85836850594802 735.5028086337506 98.12148697259373Q738.694756250681 96.38460543923944 741.5666720256073 92.56166803605005L742.3648714217052 93.67898134553651Q738.4460520015161 98.6117001949938 734.4893857485386 100.82528033161427Q730.532719495561 103.03886046823473 725.8686316404703 103.03886046823473Q720.4609217832259 103.03886046823473 716.198242227531 100.29269559601966Q711.9355626718361 97.54653072380457 709.4806456901844 92.55997962118556Q707.0257287085326 87.57342851856657 707.0257287085326 80.89900126928117Z M796.7992609706812 74.79130456062501Q796.7992609706812 75.74404229142348 796.2188599333397 76.26919974293095Q795.6384588959982 76.79435719443842 794.5211480984627 76.79435719443842H763.3803466061239V75.33142151344907H786.0535500451388Q787.3413317507363 75.33142151344907 787.3413317507363 74.07535649856803Q787.3413317507363 66.25635801720185 784.6228255686035 62.19966409669836Q781.9043193864708 58.14297017619488 777.5982514457174 58.14297017619488Q773.9787018439016 58.14297017619488 771.3630838842264 60.314846822241904Q768.7474659245511 62.48672346828893 767.3218074992776 66.60744739097431Q765.8961490740041 70.7281713136597 765.8961490740041 76.5567841282878Q765.8961490740041 86.73625437789342 770.4065720765905 92.02405409312702Q774.9169950791767 97.31185380836062 782.1403804844467 97.31185380836062Q787.1078474327957 97.31185380836062 790.7148438271263 94.60680079004122Q794.321840221457 91.90174777172182 795.2340512716402 87.29514422231927Q795.4432850359245 86.91133910935314 795.6275464879839 86.76586989865254Q795.8118079400431 86.62040068795194 795.9998813879346 86.62040068795194Q796.2902282098831 86.62040068795194 796.448337522291 86.85520507485846Q796.6064468346988 87.09000946176498 796.5764704294438 87.52143291292506Q796.1920610880313 91.91879903658057 793.6939214337758 95.43562681221898Q791.1957817795202 98.9524545878574 787.1508483129314 100.99565752804607Q783.1059148463427 103.03886046823473 778.056141816971 103.03886046823473Q771.8437452729739 103.03886046823473 767.1519690552866 100.29562065835918Q762.4601928375993 97.55238084848365 759.8403891955052 92.52732261243376Q757.2205855534112 87.50226437638388 757.2205855534112 80.72675914987359Q757.2205855534112 73.70258533660646 759.8738960038327 68.23638577608052Q762.5272064542543 62.77018621555458 767.3694682800628 59.62901914289236Q772.2117301058713 56.48785207023014 778.7515425404733 56.48785207023014Q784.2509774336097 56.48785207023014 788.2991342742154 58.84580837788314Q792.347291114821 61.203764685536136 794.5732760427511 65.33187334064786Q796.7992609706812 69.45998199575959 796.7992609706812 74.79130456062501Z" fill="#16130F"/></svg>
