<svg xmlns="http://www.w3.org/2000/svg" viewBox="0 0 256 256" width="256" height="256" fill="none">
  <path d="M 252.16 128.00 L 252.13 156.87 L 252.03 167.01 L 251.86 174.51 L 251.63 180.68 L 251.34 186.00 L 250.97 190.72 L 250.54 194.99 L 250.05 198.90 L 249.48 202.51 L 248.85 205.87 L 248.15 209.02 L 247.37 211.97 L 246.53 214.75 L 245.62 217.37 L 244.63 219.85 L 243.57 222.20 L 242.44 224.43 L 241.23 226.55 L 239.94 228.55 L 238.58 230.45 L 237.13 232.26 L 235.59 233.97 L 233.97 235.59 L 232.26 237.13 L 230.45 238.58 L 228.55 239.94 L 226.55 241.23 L 224.43 242.44 L 222.20 243.57 L 219.85 244.63 L 217.37 245.62 L 214.75 246.53 L 211.97 247.37 L 209.02 248.15 L 205.87 248.85 L 202.51 249.48 L 198.90 250.05 L 194.99 250.54 L 190.72 250.97 L 186.00 251.34 L 180.68 251.63 L 174.51 251.86 L 167.01 252.03 L 156.87 252.13 L 128.00 252.16 L 99.13 252.13 L 88.99 252.03 L 81.49 251.86 L 75.32 251.63 L 70.00 251.34 L 65.28 250.97 L 61.01 250.54 L 57.10 250.05 L 53.49 249.48 L 50.13 248.85 L 46.98 248.15 L 44.03 247.37 L 41.25 246.53 L 38.63 245.62 L 36.15 244.63 L 33.80 243.57 L 31.57 242.44 L 29.45 241.23 L 27.45 239.94 L 25.55 238.58 L 23.74 237.13 L 22.03 235.59 L 20.41 233.97 L 18.87 232.26 L 17.42 230.45 L 16.06 228.55 L 14.77 226.55 L 13.56 224.43 L 12.43 222.20 L 11.37 219.85 L 10.38 217.37 L 9.47 214.75 L 8.63 211.97 L 7.85 209.02 L 7.15 205.87 L 6.52 202.51 L 5.95 198.90 L 5.46 194.99 L 5.03 190.72 L 4.66 186.00 L 4.37 180.68 L 4.14 174.51 L 3.97 167.01 L 3.87 156.87 L 3.84 128.00 L 3.87 99.13 L 3.97 88.99 L 4.14 81.49 L 4.37 75.32 L 4.66 70.00 L 5.03 65.28 L 5.46 61.01 L 5.95 57.10 L 6.52 53.49 L 7.15 50.13 L 7.85 46.98 L 8.63 44.03 L 9.47 41.25 L 10.38 38.63 L 11.37 36.15 L 12.43 33.80 L 13.56 31.57 L 14.77 29.45 L 16.06 27.45 L 17.42 25.55 L 18.87 23.74 L 20.41 22.03 L 22.03 20.41 L 23.74 18.87 L 25.55 17.42 L 27.45 16.06 L 29.45 14.77 L 31.57 13.56 L 33.80 12.43 L 36.15 11.37 L 38.63 10.38 L 41.25 9.47 L 44.03 8.63 L 46.98 7.85 L 50.13 7.15 L 53.49 6.52 L 57.10 5.95 L 61.01 5.46 L 65.28 5.03 L 70.00 4.66 L 75.32 4.37 L 81.49 4.14 L 88.99 3.97 L 99.13 3.87 L 128.00 3.84 L 156.87 3.87 L 167.01 3.97 L 174.51 4.14 L 180.68 4.37 L 186.00 4.66 L 190.72 5.03 L 194.99 5.46 L 198.90 5.95 L 202.51 6.52 L 205.87 7.15 L 209.02 7.85 L 211.97 8.63 L 214.75 9.47 L 217.37 10.38 L 219.85 11.37 L 222.20 12.43 L 224.43 13.56 L 226.55 14.77 L 228.55 16.06 L 230.45 17.42 L 232.26 18.87 L 233.97 20.41 L 235.59 22.03 L 237.13 23.74 L 238.58 25.55 L 239.94 27.45 L 241.23 29.45 L 242.44 31.57 L 243.57 33.80 L 244.63 36.15 L 245.62 38.63 L 246.53 41.25 L 247.37 44.03 L 248.15 46.98 L 248.85 50.13 L 249.48 53.49 L 250.05 57.10 L 250.54 61.01 L 250.97 65.28 L 251.34 70.00 L 251.63 75.32 L 251.86 81.49 L 252.03 88.99 L 252.13 99.13 Z" fill="#ECE8DD"/>
  <path d="M 252.16 128.00 L 252.13 156.87 L 252.03 167.01 L 251.86 174.51 L 251.63 180.68 L 251.34 186.00 L 250.97 190.72 L 250.54 194.99 L 250.05 198.90 L 249.48 202.51 L 248.85 205.87 L 248.15 209.02 L 247.37 211.97 L 246.53 214.75 L 245.62 217.37 L 244.63 219.85 L 243.57 222.20 L 242.44 224.43 L 241.23 226.55 L 239.94 228.55 L 238.58 230.45 L 237.13 232.26 L 235.59 233.97 L 233.97 235.59 L 232.26 237.13 L 230.45 238.58 L 228.55 239.94 L 226.55 241.23 L 224.43 242.44 L 222.20 243.57 L 219.85 244.63 L 217.37 245.62 L 214.75 246.53 L 211.97 247.37 L 209.02 248.15 L 205.87 248.85 L 202.51 249.48 L 198.90 250.05 L 194.99 250.54 L 190.72 250.97 L 186.00 251.34 L 180.68 251.63 L 174.51 251.86 L 167.01 252.03 L 156.87 252.13 L 128.00 252.16 L 99.13 252.13 L 88.99 252.03 L 81.49 251.86 L 75.32 251.63 L 70.00 251.34 L 65.28 250.97 L 61.01 250.54 L 57.10 250.05 L 53.49 249.48 L 50.13 248.85 L 46.98 248.15 L 44.03 247.37 L 41.25 246.53 L 38.63 245.62 L 36.15 244.63 L 33.80 243.57 L 31.57 242.44 L 29.45 241.23 L 27.45 239.94 L 25.55 238.58 L 23.74 237.13 L 22.03 235.59 L 20.41 233.97 L 18.87 232.26 L 17.42 230.45 L 16.06 228.55 L 14.77 226.55 L 13.56 224.43 L 12.43 222.20 L 11.37 219.85 L 10.38 217.37 L 9.47 214.75 L 8.63 211.97 L 7.85 209.02 L 7.15 205.87 L 6.52 202.51 L 5.95 198.90 L 5.46 194.99 L 5.03 190.72 L 4.66 186.00 L 4.37 180.68 L 4.14 174.51 L 3.97 167.01 L 3.87 156.87 L 3.84 128.00 L 3.87 99.13 L 3.97 88.99 L 4.14 81.49 L 4.37 75.32 L 4.66 70.00 L 5.03 65.28 L 5.46 61.01 L 5.95 57.10 L 6.52 53.49 L 7.15 50.13 L 7.85 46.98 L 8.63 44.03 L 9.47 41.25 L 10.38 38.63 L 11.37 36.15 L 12.43 33.80 L 13.56 31.57 L 14.77 29.45 L 16.06 27.45 L 17.42 25.55 L 18.87 23.74 L 20.41 22.03 L 22.03 20.41 L 23.74 18.87 L 25.55 17.42 L 27.45 16.06 L 29.45 14.77 L 31.57 13.56 L 33.80 12.43 L 36.15 11.37 L 38.63 10.38 L 41.25 9.47 L 44.03 8.63 L 46.98 7.85 L 50.13 7.15 L 53.49 6.52 L 57.10 5.95 L 61.01 5.46 L 65.28 5.03 L 70.00 4.66 L 75.32 4.37 L 81.49 4.14 L 88.99 3.97 L 99.13 3.87 L 128.00 3.84 L 156.87 3.87 L 167.01 3.97 L 174.51 4.14 L 180.68 4.37 L 186.00 4.66 L 190.72 5.03 L 194.99 5.46 L 198.90 5.95 L 202.51 6.52 L 205.87 7.15 L 209.02 7.85 L 211.97 8.63 L 214.75 9.47 L 217.37 10.38 L 219.85 11.37 L 222.20 12.43 L 224.43 13.56 L 226.55 14.77 L 228.55 16.06 L 230.45 17.42 L 232.26 18.87 L 233.97 20.41 L 235.59 22.03 L 237.13 23.74 L 238.58 25.55 L 239.94 27.45 L 241.23 29.45 L 242.44 31.57 L 243.57 33.80 L 244.63 36.15 L 245.62 38.63 L 246.53 41.25 L 247.37 44.03 L 248.15 46.98 L 248.85 50.13 L 249.48 53.49 L 250.05 57.10 L 250.54 61.01 L 250.97 65.28 L 251.34 70.00 L 251.63 75.32 L 251.86 81.49 L 252.03 88.99 L 252.13 99.13 Z" fill="none" stroke="#16130F" stroke-opacity="0.14" stroke-width="1.5"/>
  <path d="M89.4244030668127 122.55263964950711Q89.4244030668127 122.55263964950711 94.24052573932092 120.83031763417306Q99.05664841182913 119.107995618839 106.58383351588171 116.39693318729464Q114.11101861993427 113.68587075575027 122.33989047097481 110.71964950711939Q130.56876232201535 107.7534282584885 137.58562979189486 105.29752464403066Q144.60249726177437 102.84162102957283 148.30230010952903 101.62961664841183L145.62313253012047 104.05362541073384Q146.96271631982475 100.92792990142388 147.8557721796276 96.1755969331873Q148.74882803943046 91.4232639649507 148.81261774370208 84.59776560788609Q148.8764074479737 75.79478641840088 146.1015553121577 70.2450821467689Q143.3267031763417 64.69537787513691 138.4786856516977 64.69537787513691Q132.99277108433733 64.69537787513691 127.5387513691128 68.80981380065717Q122.08473165388827 72.92424972617744 117.23671412924423 80.67469879518072Q112.38869660460021 88.42514786418401 108.68889375684556 99.3650821467689Q104.9890909090909 110.30501642935378 103.07539978094195 124.01980284775465Q100.33244249726177 143.73082146768894 106.61572836801753 154.31991237677985Q112.89901423877328 164.90900328587077 126.67759036144578 164.90900328587077Q134.01340635268346 164.90900328587077 140.58374589266157 161.84709748083242Q147.15408543263965 158.7851916757941 152.73568455640745 152.50190580503835Q158.31728368017525 146.21861993428257 162.6549835706462 136.58637458926614Q163.10151150054764 135.82089813800656 163.45235487404162 135.5019496166484Q163.8031982475356 135.18300109529025 164.24972617743703 135.3105805038335Q164.69625410733846 135.37437020810515 164.82383351588172 135.94847754654984Q164.95141292442497 136.52258488499453 164.56867469879518 137.41564074479737Q159.33791894852135 150.49253012048192 151.33231106243153 159.71014238773273Q143.3267031763417 168.92775465498357 132.73761226725082 173.7438773274918Q122.14852135815991 178.56 109.13542168674698 178.56Q97.14295728368018 178.56 88.78650602409638 173.04219058050384Q80.43005476451259 167.52438116100768 76.79404162102958 156.68013143483023Q73.15802847754655 145.83588170865278 75.19929901423878 130.0798247535597Q77.0492004381161 116.10987951807229 82.82216867469879 103.79846659364732Q88.59513691128149 91.48705366922235 97.33432639649507 82.10996714129244Q106.07351588170866 72.73288061336254 116.85397590361445 67.40644030668128Q127.63443592552025 62.08 139.4355312157722 62.08Q149.51430449069002 62.08 156.08464403066813 66.22633077765607Q162.6549835706462 70.37266155531216 165.812573932092 77.10247535596933Q168.97016429353778 83.8322891566265 168.71500547645127 91.6146330777656Q168.65121577217963 93.08179627601314 169.4166922234392 93.84727272727272Q170.1821686746988 94.61274917853231 172.223439211391 94.54895947426068Q173.05270536692223 94.48516976998904 173.37165388828038 94.70843373493975Q173.69060240963856 94.93169769989046 173.75439211391017 95.31443592552026Q173.88197152245345 95.69717415115005 173.5949178532311 96.0161226725082Q173.30786418400876 96.33507119386637 172.6061774370208 96.59023001095291Q171.01143483023 97.03675794085433 164.37730558598028 99.26939759036145Q157.74317634173056 101.50203723986857 148.39798466593646 104.72341730558598Q139.0527929901424 107.9447973713034 128.9102300109529 111.38944140197152Q118.76766703176341 114.83408543263965 109.93279299014239 117.89599123767799Q101.09791894852135 120.95789704271633 95.58010952902518 122.87158817086528Q90.06230010952902 124.78527929901423 90.06230010952902 124.78527929901423Z" fill="#E0381F"/>
</svg>
